<svg width="11" height="18" viewBox="0 0 11 18" fill="none" xmlns="http://www.w3.org/2000/svg">
<path fill-rule="evenodd" clip-rule="evenodd" d="M7.09853 0.371994C5.19415 0.553468 3.92177 1.68079 3.53777 3.52691C3.48533 3.77905 3.46302 4.18201 3.44783 5.15361L3.42759 6.44513H2.23339H1.03923L0.936587 6.5518L0.833984 6.65843V8.16718V9.67593L0.952757 9.77569L1.07153 9.87542H2.25434H3.43716V13.3625C3.43716 15.2804 3.44931 16.909 3.46421 16.9816C3.51932 17.2508 3.53164 17.2526 5.28601 17.2526H6.8634L6.95983 17.1585L7.05621 17.0644L7.07737 13.4802L7.09853 9.89608L8.5045 9.87542C9.7809 9.85666 9.91741 9.84794 9.98598 9.78094C10.0558 9.71275 10.0615 9.58971 10.0615 8.16028C10.0615 6.73084 10.0558 6.6078 9.98598 6.53961C9.91741 6.47262 9.7809 6.46389 8.5045 6.44513L7.09853 6.42447L7.10247 5.39092C7.10467 4.82248 7.1197 4.28835 7.13591 4.20396C7.17401 4.0057 7.34738 3.8067 7.56275 3.71413C7.70505 3.65292 7.9186 3.63577 8.84689 3.61093C9.85426 3.58398 9.97015 3.57357 10.0638 3.50161L10.1673 3.42214V1.98654C10.1673 0.887198 10.1547 0.534003 10.1133 0.478746C10.0835 0.43907 9.98353 0.389476 9.89104 0.368522C9.69104 0.323226 7.58268 0.325871 7.09853 0.371994Z" fill="#348562"/>
</svg>
