<svg width="833" height="833" viewBox="0 0 833 833" fill="none" xmlns="http://www.w3.org/2000/svg">
<path d="M559.672 780.938C552.484 780.938 546.656 775.11 546.656 767.922V546.656C546.656 539.468 552.484 533.641 559.672 533.641C566.86 533.641 572.688 539.468 572.688 546.656V767.922C572.688 775.11 566.86 780.938 559.672 780.938Z" fill="#B7704A"/>
<path d="M559.672 559.672C631.555 559.672 689.828 483.917 689.828 390.469C689.828 297.02 631.555 221.266 559.672 221.266C487.789 221.266 429.516 297.02 429.516 390.469C429.516 483.917 487.789 559.672 559.672 559.672Z" fill="#5E9E5E"/>
<path d="M247.297 780.938C240.109 780.938 234.281 775.11 234.281 767.922V572.688C234.281 565.5 240.109 559.672 247.297 559.672C254.485 559.672 260.312 565.5 260.312 572.688V767.922C260.312 775.11 254.485 780.938 247.297 780.938Z" fill="#B7704A"/>
<path d="M338.406 481.578C338.406 567.838 297.615 598.719 247.297 598.719C196.978 598.719 156.188 567.838 156.188 481.578C156.188 395.319 196.978 286.344 247.297 286.344C297.615 286.344 338.406 395.319 338.406 481.578Z" fill="#5E9E5E"/>
<path d="M221.266 442.531C221.266 528.791 180.475 559.672 130.156 559.672C79.8378 559.672 39.0469 528.791 39.0469 442.531C39.0469 356.272 79.8378 247.297 130.156 247.297C180.475 247.297 221.266 356.272 221.266 442.531Z" fill="#80C56E"/>
<path d="M620.524 520.631H759.129C777.224 520.631 790.869 504.19 787.534 486.404L764.784 365.069C758.24 330.171 746.115 296.557 728.871 265.519L701.577 216.39C696.455 207.172 683.197 207.172 678.076 216.39L650.782 265.519C633.539 296.557 621.412 330.171 614.868 365.069L592.119 486.404C588.785 504.19 602.429 520.631 620.524 520.631Z" fill="#80C56E"/>
<path d="M689.828 780.938C682.64 780.938 676.812 775.11 676.812 767.922V338.406C676.812 331.218 682.64 325.391 689.828 325.391C697.016 325.391 702.844 331.218 702.844 338.406V767.922C702.844 775.11 697.016 780.938 689.828 780.938Z" fill="#B7704A"/>
<path d="M130.156 780.938C122.968 780.938 117.141 775.11 117.141 767.922V403.484C117.141 396.296 122.968 390.469 130.156 390.469C137.344 390.469 143.172 396.296 143.172 403.484V767.922C143.172 775.11 137.344 780.938 130.156 780.938Z" fill="#B7704A"/>
<path d="M481.578 338.406H546.656L416.5 156.188L286.344 338.406H351.422L286.344 429.516H351.422L286.344 520.625H546.656L481.578 429.516H546.656L481.578 338.406Z" fill="#80C56E"/>
<path d="M689.829 429.514C686.499 429.514 683.167 428.244 680.626 425.702C675.541 420.618 675.541 412.379 680.626 407.295L719.673 368.248C724.755 363.167 732.996 363.167 738.078 368.248C743.163 373.332 743.163 381.571 738.078 386.656L699.031 425.702C696.492 428.244 693.16 429.514 689.829 429.514Z" fill="#B7704A"/>
<path d="M689.817 481.582C687.336 481.582 684.829 480.873 682.61 479.394L643.563 453.363C637.582 449.377 635.965 441.294 639.953 435.314C643.941 429.331 652.022 427.716 658.002 431.703L697.049 457.735C703.03 461.721 704.647 469.803 700.659 475.784C698.151 479.547 694.023 481.582 689.817 481.582Z" fill="#B7704A"/>
<path d="M689.829 416.499C686.499 416.499 683.167 415.228 680.626 412.687L641.579 373.64C636.495 368.556 636.495 360.317 641.579 355.233C646.661 350.152 654.902 350.152 659.985 355.233L699.031 394.279C704.116 399.364 704.116 407.603 699.031 412.687C696.492 415.228 693.16 416.499 689.829 416.499Z" fill="#B7704A"/>
<path d="M689.842 494.595C685.637 494.595 681.509 492.56 679 488.798C675.013 482.818 676.628 474.735 682.61 470.749L721.657 444.718C727.638 440.732 735.719 442.347 739.707 448.328C743.694 454.309 742.079 462.391 736.097 466.377L697.05 492.409C694.832 493.886 692.323 494.595 689.842 494.595Z" fill="#B7704A"/>
<path d="M130.146 442.536C127.664 442.536 125.157 441.826 122.938 440.347L83.8912 414.316C77.9106 410.33 76.2934 402.247 80.281 396.267C84.2687 390.284 92.3514 388.669 98.3305 392.656L137.377 418.688C143.358 422.674 144.975 430.756 140.988 436.737C138.479 440.5 134.351 442.536 130.146 442.536Z" fill="#B7704A"/>
<path d="M130.17 481.58C125.965 481.58 121.837 479.545 119.328 475.784C115.341 469.803 116.956 461.72 122.939 457.734L161.985 431.703C167.966 427.715 176.047 429.332 180.035 435.313C184.022 441.294 182.407 449.377 176.425 453.363L137.378 479.394C135.16 480.871 132.651 481.58 130.17 481.58Z" fill="#B7704A"/>
<path d="M130.162 520.631C128.799 520.631 127.411 520.415 126.044 519.961L86.9973 506.945C80.1788 504.672 76.4921 497.3 78.7649 490.48C81.0378 483.663 88.4079 479.978 95.2281 482.248L134.275 495.264C141.094 497.536 144.78 504.908 142.507 511.728C140.69 517.182 135.612 520.631 130.162 520.631Z" fill="#B7704A"/>
<path d="M227.773 650.781H193.594C187.815 628.326 167.431 611.734 143.172 611.734C114.419 611.734 91.1094 635.044 91.1094 663.797H78.0938C56.5285 663.797 39.0469 681.278 39.0469 702.844C39.0469 724.409 56.5285 741.891 78.0938 741.891H91.1094H156.188H169.203H195.234H227.773C252.933 741.891 273.328 721.495 273.328 696.336C273.328 671.177 252.933 650.781 227.773 650.781Z" fill="#80C56E"/>
<path d="M715.859 637.766H701.204C695.425 615.31 675.041 598.719 650.781 598.719C626.522 598.719 606.139 615.31 600.359 637.766H585.703C556.95 637.766 533.641 661.075 533.641 689.828C533.641 718.581 556.95 741.891 585.703 741.891H598.719H637.766H663.797H702.844H715.859C744.613 741.891 767.922 718.581 767.922 689.828C767.922 661.075 744.613 637.766 715.859 637.766Z" fill="#5E9E5E"/>
<path d="M416.5 780.938C409.312 780.938 403.484 775.11 403.484 767.922V299.359C403.484 292.171 409.312 286.344 416.5 286.344C423.688 286.344 429.516 292.171 429.516 299.359V767.922C429.516 775.11 423.688 780.938 416.5 780.938Z" fill="#B7704A"/>
<path d="M39.0469 741.891H793.953V793.953H39.0469V741.891Z" fill="#5E9E5E"/>
<path d="M416.514 390.474C411.739 390.474 407.143 387.837 404.862 383.276C401.647 376.847 404.252 369.027 410.683 365.814L436.714 352.799C443.147 349.584 450.963 352.192 454.176 358.618C457.391 365.048 454.786 372.867 448.355 376.08L422.324 389.096C420.456 390.03 418.469 390.474 416.514 390.474Z" fill="#B7704A"/>
<path d="M416.506 416.506C415.142 416.506 413.755 416.29 412.388 415.836L373.341 402.82C366.523 400.547 362.836 393.175 365.109 386.355C367.38 379.538 374.752 375.853 381.572 378.123L420.619 391.139C427.437 393.411 431.124 400.783 428.851 407.603C427.034 413.057 421.956 416.506 416.506 416.506Z" fill="#B7704A"/>
<path d="M416.514 481.583C411.739 481.583 407.143 478.946 404.862 474.386C401.647 467.956 404.252 460.137 410.683 456.924L436.714 443.908C443.147 440.693 450.963 443.301 454.176 449.728C457.391 456.157 454.786 463.976 448.355 467.19L422.324 480.205C420.456 481.139 418.469 481.583 416.514 481.583Z" fill="#B7704A"/>
<path d="M416.489 351.426C414.008 351.426 411.501 350.716 409.282 349.237L370.235 323.206C364.254 319.22 362.637 311.137 366.625 305.157C370.611 299.174 378.692 297.56 384.674 301.546L423.721 327.578C429.702 331.564 431.319 339.646 427.331 345.627C424.823 349.39 420.695 351.426 416.489 351.426Z" fill="#B7704A"/>
<path d="M377.453 663.797C334.323 663.797 299.359 698.76 299.359 741.891H455.547C455.547 698.76 420.584 663.797 377.453 663.797Z" fill="#5E9E5E"/>
<path d="M481.578 663.797C438.448 663.797 403.484 698.76 403.484 741.891H559.672C559.672 698.76 524.709 663.797 481.578 663.797Z" fill="#80C56E"/>
<path d="M687.669 78.3053C682.369 63.0314 667.859 52.0625 650.781 52.0625C645.598 52.0625 640.653 53.081 636.129 54.9162C626.663 45.1349 613.405 39.0469 598.719 39.0469C569.966 39.0469 546.656 62.3562 546.656 91.1094H533.641C512.075 91.1094 494.594 108.591 494.594 130.156C494.594 151.722 512.075 169.203 533.641 169.203H546.656H611.734H624.75H650.781H683.32C708.48 169.203 728.875 148.808 728.875 123.648C728.875 99.9567 710.788 80.4968 687.669 78.3053Z" fill="#DFE9F0"/>
<path d="M221.33 246.664C286.681 246.664 339.659 193.912 339.659 128.84C339.659 63.7672 286.681 11.0156 221.33 11.0156C155.979 11.0156 103.002 63.7672 103.002 128.84C103.002 193.912 155.979 246.664 221.33 246.664Z" fill="#FFBB4A"/>
<path opacity="0.1" d="M150.995 128.834C150.995 71.9457 191.483 24.4728 245.332 13.4274C237.582 11.8379 229.557 11 221.335 11C155.977 11 103 63.7588 103 128.834C103 193.91 155.978 246.664 221.335 246.664C229.557 246.664 237.582 245.825 245.332 244.237C191.483 233.191 150.995 185.723 150.995 128.834Z" fill="black"/>
</svg>
