<svg width="792" height="882" viewBox="0 0 792 882" fill="none" xmlns="http://www.w3.org/2000/svg">
<path d="M210.579 149.685C215.646 149.217 215.994 157.179 210.827 157.504C209.359 157.597 206.266 156.27 205.133 156.987C202.797 158.499 201.883 161.077 198.947 161.72C195.269 162.53 195.287 163.982 193.013 166.696C190.809 169.322 190.708 169.355 192.875 172.299C194.059 173.96 194.587 177.507 194.682 179.531C194.818 182.631 190.35 183.069 192.054 186.97C193.336 189.919 192.589 188.711 189.984 190.072C187.439 191.403 187.344 194.935 185.963 197.114C183.201 201.46 176.905 203.519 175.594 208.81C175.084 210.881 177.25 214.704 175.197 216.249C173.192 217.76 170.971 219.234 168.54 219.966C166.257 220.653 163.243 220.491 161.49 222.354C158.791 225.228 159.246 229.905 157.987 233.407C156.846 236.639 155.335 237.896 153.321 240.548C151.164 243.389 149.945 246.827 147.583 249.521C146.434 250.83 144.038 254.696 142.543 255.383C139.994 256.557 136.235 253.27 134.182 256.479C132.482 259.135 131.68 260.858 129.288 263.105C126.923 265.321 127.332 268.716 125.562 271.243C123.898 273.616 121.001 274.121 118.822 275.808C116.343 277.718 117.375 280.27 116.151 282.672C114.431 286.052 105.303 283.522 102.092 284.097C99.3687 284.585 95.1592 284.376 92.7589 285.78C91.3219 286.621 87.588 289.902 86.5976 288.019C85.2351 285.395 85.386 283.631 85.843 280.832C86.1862 278.707 87.0794 276.742 84.2014 276.908C76.0243 277.383 70.7872 279.941 65.7673 286.468C62.9658 290.109 62.0995 293.243 57.8817 295.695C54.4827 297.672 50.6847 299.289 48.2739 302.545C44.968 307.003 46.256 321.045 53.083 321.951C56.7074 322.431 58.9775 325.222 62.943 324.963C67.3696 324.674 64.7852 329.185 63.3441 331.722C61.44 335.078 59.8025 338.074 61.1608 341.965C62.482 345.754 64.6384 349.732 67.4606 352.616C69.4289 354.624 71.8313 354.242 74.4261 353.851C79.8017 353.04 75.6459 356.811 76.5991 360.299C78.8568 368.565 88.9236 381.545 83.7134 390.165C82.628 391.955 81.588 391.201 81.1207 393.762C80.7941 395.569 79.3241 393.706 78.0484 394.074C78.2924 394.006 77.8148 386.793 75.1601 386.933C71.3124 387.128 68.207 389.809 64.4255 390.276C63.0485 390.446 60.7267 389.468 59.7425 390.783C58.2605 392.766 56.3647 395.447 53.9213 395.05C53.0889 394.915 52.2748 394.722 51.5034 394.416C48.8942 393.376 47.9783 390.105 45.3381 389.084C42.5634 388.008 40.9818 390.628 38.6062 391.352C35.8213 392.201 30.9874 389.66 28.2024 389.009C26.1245 388.523 23.5753 386.954 21.394 387.771C19.3162 388.552 18.2969 392.23 18.8985 394.145C19.5126 396.08 18.6463 399.326 16.0412 398.352C14.8255 397.899 13.6636 398.377 12.421 398.181C10.7525 397.914 9.9689 396.27 8.35623 395.913C2.38728 394.591 3.48928 403.964 2.61886 406.552C1.9221 408.624 -1.82426 409.815 1.10336 412.279C1.87041 412.924 3.03235 414.479 4.02269 414.704C4.99443 414.923 5.76976 413.699 6.5885 414.698C9.0716 417.725 12.9234 419.844 13.8827 423.754C14.9578 428.16 20.1556 432.169 23.9723 434.296C28.6552 436.901 33.487 439.802 38.5855 441.431C41.2692 442.283 44.0789 441.692 46.8122 441.816C50.633 441.989 47.2174 436.819 51.5179 438.419C53.91 439.308 57.4951 439.391 59.5048 437.55C60.95 436.229 62.4882 435.094 64.5681 436.564C65.4013 437.151 60.4289 441.313 60.0547 441.628C57.3483 443.925 54.6047 442.49 51.7639 444.15C49.5207 445.463 46.3739 445.678 44.4366 447.167C41.8791 449.135 39.8715 446.1 37.4484 447.535C36.3712 448.173 33.0032 450.437 32.1059 448.746C30.8302 446.34 30.8509 444.504 27.6276 444.425C22.8785 444.328 20.0109 448.494 20.4306 452.931C21.0178 458.85 27.2886 463.835 31.0432 467.865C35.1906 472.32 39.3484 476.362 43.1734 481.105C47.203 486.104 49.8825 491.957 54.6047 496.533C56.8707 498.729 60.1167 499.225 61.4275 502.25C62.8955 505.636 66.3772 505.14 69.3255 506.38C71.8748 507.451 73.7438 510.813 76.8926 508.74C77.821 508.13 79.1669 506.531 80.4426 506.697C82.4254 506.953 83.4488 507.329 85.4832 506.61C87.8712 505.768 92.0187 505.799 93.9042 504.154C96.623 501.797 98.2357 501.127 101.637 500.637C104.478 500.225 105.489 499.622 107.031 497.548C108.708 495.292 113.184 496.762 114.848 493.698C115.576 492.365 115.71 490.86 116.517 489.526C117.641 487.673 119.527 486.753 120.712 485.06C122.684 482.244 120.677 479.658 119.362 477.216C118.847 476.257 120.011 475.88 120.559 475.459C122.043 474.319 121.038 472.655 120.507 471.268C119.271 468.065 119.666 464.215 123.112 462.386C122.341 462.797 122.641 467.236 122.664 467.993C122.765 472.103 124.497 469.973 127.103 470.54C127.93 470.72 123.195 474.307 123.185 475.163C123.123 479.399 126.096 479.42 128.889 479.848C127.686 479.651 126.962 482.447 126.981 483.361C127.032 485.314 126.999 485.01 125.647 486.007C123.72 487.429 123.46 489.29 123.782 491.529C124.214 494.472 126.127 494.463 127.303 496.628C128.101 498.094 126.052 499.014 127.818 500.902C130.115 503.358 129.069 505.206 130.258 508.03C130.919 509.62 131.486 510.762 131.438 512.537C131.364 515.378 127.177 516.536 126.768 519.534C126.253 523.225 126.511 527.498 124.167 530.709C120.664 535.524 127.485 537.854 125.757 542.002C124.568 544.851 126.311 545.237 126.945 547.675C127.477 549.722 126.379 552.389 126.441 554.545C126.528 557.324 128.01 559.7 128.18 562.235C128.405 565.681 126.032 565.987 128.62 569.128C129.978 570.774 127.896 572.26 127.53 573.802C127.109 575.572 129.612 577.65 130.965 578.399C133.007 579.54 130.425 581.996 131.531 583.884C132.617 585.749 134.515 585.662 134.804 587.944C135.275 591.691 137.697 594.461 137.881 598.662C137.916 599.45 136.559 603.273 137.07 603.676C139.555 605.648 138.732 605.856 139.1 608.278C139.191 608.871 139.553 609.376 139.989 609.789C140.322 610.104 140.537 610.535 140.508 610.993C140.432 612.171 139.846 613.65 139.894 614.748C140.012 617.605 140.61 620.415 140.849 623.262C141.412 629.928 141.65 634.437 144.718 640.424C145.867 642.659 145.954 645.279 147.102 647.57C147.598 648.554 149.219 653.377 150.124 653.621C151.636 654.031 151.836 656.919 152.213 658.288C152.483 659.272 152.438 661.075 153.579 661.608C154.373 661.987 156.081 661.538 156.683 662.206C156.116 661.569 151.036 664.267 155.727 667.068C158.847 668.933 158.219 673.451 160.419 676.135C161.494 677.45 163.086 676.527 163.317 678.417C163.4 679.102 162.939 681.959 163.708 682.296C164.767 682.767 167.899 682.61 167.949 684.272C167.996 685.91 166.894 686.853 168.124 688.451C170.07 690.964 171.835 693.024 172.663 696.199C172.896 697.094 172.691 698.026 172.334 698.88C172.149 699.322 172.049 699.806 172.152 700.274C172.404 701.418 173.196 702.5 173.796 703.42C175.239 705.655 175.425 707.747 176.496 710.077C177.48 712.234 178.631 713.437 178.545 715.955C178.45 718.703 178.611 721.236 178.931 723.981C179.27 726.917 179.084 730.182 179.719 733.047C180.062 734.598 182.028 735.047 182.572 736.486C183.327 738.533 181.745 740.728 183.974 741.915C184.942 742.434 185.572 744.969 185.839 745.866C186.988 749.674 188.144 753.603 189.777 757.229C190.514 758.858 191.332 760.424 192.649 761.668C193.983 762.927 196.493 762.464 197.39 763.849C199.468 767.013 201.868 769.587 204.395 772.318C205.611 773.633 205.354 776.174 206.225 777.756C207.378 779.856 207.81 781.076 209.384 782.974C210.934 784.847 209.963 787.231 211.515 788.97C213.136 790.781 213.271 792.787 213.49 795.117C213.672 796.967 215.175 797.705 215.438 799.43C215.702 801.129 214.985 803.742 215.921 805.268C216.767 806.622 217.439 809.447 219.014 810.21C220.627 810.981 219.471 814.192 220.447 814.562C221.038 814.783 221.454 813.611 222.006 813.602C222.711 813.594 223.257 815.42 223.615 815.86C223.453 815.664 228.577 821.637 226.83 821.32C224.799 820.95 224.241 817.613 222.006 817.568C219.953 817.529 221.841 822.439 222.393 823.557C224.837 828.491 225.147 833.19 226.24 838.628C226.728 841.028 228.546 842.2 229.058 844.239C229.712 846.852 227.743 849.306 230.322 851.322C232.387 852.935 232.426 855.282 233.328 857.517C234.544 860.546 238.267 861.42 240.273 863.883C241.807 865.772 243.558 869.101 246.45 868.541C249.24 868.005 248.098 870.476 249.343 872.436C252.597 877.59 257.28 875.268 260.892 879.329C265.937 885.075 268.608 880.266 272.456 876.873C276.002 873.749 280.604 871.82 285.138 870.679C288.336 869.876 288.585 862.047 288.214 859.425C287.985 857.796 287.892 855.089 288.489 853.547C289.073 852.036 293.187 848.771 294.847 849.251C298.664 850.344 299.801 848.833 303.125 847.936C305.478 847.322 307.862 847.714 310.213 847.125C311.484 846.811 315.466 846.921 316.039 845.709C316.393 844.969 318.125 844.355 317.18 843.418C316.047 842.277 315.386 841.144 314.036 840.073C308.484 835.659 313.072 831.276 316.401 827.269C318.082 825.238 319.91 822.925 322.105 821.438C323.019 820.816 319.391 818.699 321.278 816.371C322.852 814.427 324.528 813.059 327.047 814.026C330.342 815.294 332.058 815.395 335.584 814.893C337.331 814.632 341.879 814.13 342.816 812.335C343.374 811.256 342.218 810.927 341.619 810.392C340.587 809.471 340.864 807.377 340.839 806.174C340.792 804.026 341.532 800.893 340.73 798.95C339.785 796.715 339.179 793.74 339.77 791.348C340.479 788.49 340.533 785.941 339.148 783.266C338.125 781.297 336.158 778.481 338.385 776.765C341.548 774.35 337.37 773.145 337.835 770.769C338.331 768.4 339.307 766.103 340.039 763.804C341.062 760.601 341.133 759.931 343.833 757.736C344.557 757.153 349.585 752.739 349.577 751.684C349.56 749.85 345.659 748.3 345.69 746.712C345.706 745.831 350.987 744.241 351.929 743.321C353.581 741.714 354.181 738.45 355.55 736.49C357.493 733.752 356.581 730.604 356.36 727.345C356.147 724.244 354.967 721.773 352.173 720.2C351.142 719.617 347.978 718.476 348.506 716.807C349.804 712.738 356.761 722.78 354.369 715.312C353.236 711.762 351.96 708.144 350.348 704.782C349.372 702.752 346.697 699.605 348.64 697.306C350.583 695.009 352.434 694.765 351.882 691.703C350.968 686.706 348.317 682.441 347.277 677.396C346.122 671.84 347.435 668.439 350.811 664.331C351.944 662.971 353.643 659.185 353.817 657.438C353.927 656.313 356.877 654.903 357.665 654.409C359.412 653.338 360.962 653.133 362.906 652.78C366.731 652.087 366.33 655.424 368.831 656.975C372.152 659.036 376.055 651.238 377.379 649.247C378.394 647.721 378.851 645.525 380.825 644.958C381.305 644.824 382.634 637.9 382.965 636.798C383.728 634.24 388.072 635.483 389.434 636.773C391.835 639.056 394.006 639.196 397.398 637.954C400.097 636.97 402.819 635.349 405.582 634.23C409.146 632.797 410.988 631.712 413.939 629.336C415.568 628.021 414.584 622.449 414.317 620.601C414.096 619.121 412.578 618.147 412.349 616.588C411.931 613.7 414.48 614.384 416.205 613.267C417.677 612.314 419.234 611.504 420.706 610.536C422.296 609.49 423.232 607.586 424.861 606.728C428.008 605.099 431.527 605.351 434.682 603.407C437.783 601.495 442.882 598.197 443.109 594.153C443.393 589.297 444.069 586.59 448.586 584.142C452.63 581.955 457.596 581.041 461.335 578.405C465.403 575.539 467.291 570.149 470.392 566.403C471.873 564.616 473.099 562.609 475.059 561.288C476.671 560.202 478.576 559.092 478.357 556.834C477.908 552.182 482.771 552.246 484.117 548.004C485.022 545.146 488.94 544.162 491.121 542.14C491.719 541.582 493.065 541.4 493.404 541.047C493.687 540.747 495.616 536.198 495.23 536.089C496.514 536.467 497.221 537.71 498.74 537.679C500.109 537.654 501.172 536.521 502.47 536.207C504.744 535.657 506.169 533.405 508.34 532.491C513.684 530.248 520.892 528.974 524.772 524.323C528.604 519.726 535.718 516.154 534.027 509.014C533.673 507.511 536.789 505.678 537.647 504.664C539.607 502.355 539.977 498.824 539.638 495.911C539.245 492.582 536.239 491.922 534.672 489.263C533.351 487.01 536.615 483.826 538.104 482.354C540.401 480.073 544.683 481.347 546.657 478.992C548.216 477.133 552.512 477.708 554.857 477.274C556.8 476.916 559.176 477.168 559.65 474.894C560.208 472.21 560.247 472.21 562.97 471.29C564.622 470.73 563.096 465.578 564.882 465.578C566.528 465.578 565.906 470.8 566.512 471.892C566.826 472.442 572.067 470.749 572.942 470.749C576.057 470.749 576.971 469.556 578.53 466.944C579.938 464.592 588.045 470.79 590.075 465.803C592.044 460.963 591.643 456.872 588.729 452.588C587.958 451.463 587.1 448.167 587.013 446.774C586.856 444.406 586.503 443.852 585.126 441.353C583.875 439.076 585.566 436.608 585.196 434.193C584.644 430.504 583.811 430.112 585.936 426.822C587.509 424.38 585.016 421.465 582.709 420.764C580.017 419.941 579.672 421.085 579.93 417.309C580.151 414.053 579.237 412.165 576.531 410.329C573.62 408.357 573.407 406.124 575.689 403.573C577.924 401.065 577.602 399.613 577.42 396.556C577.286 394.256 578.332 391.265 577.53 389.007C575.956 384.589 567.897 388.769 565.025 386.356C562.602 384.318 557.375 376.569 563.073 375.837C566.371 375.411 567.134 372.721 567.434 369.802C567.779 366.475 568.827 367.269 571.006 365.816C573.87 363.909 583.937 366.423 582.535 359.836C581.811 356.344 582.142 355.557 578.592 354.581C575.791 353.809 577.561 350.175 574.941 349.124C573.068 348.372 569.613 351.426 568.37 349.377C566.993 347.129 564.868 346.331 563.483 344.301C562.641 343.069 561.099 343.019 559.784 342.543C557.226 341.621 559.854 337.817 559.941 336.573C560.177 332.93 563.452 332.644 565.286 330.016C566.679 328.023 568.592 333.527 569.276 334.48C570.558 336.283 573.438 338.733 575.572 337C577.058 335.797 575.681 332.626 577.106 331.898C579.498 330.68 583.221 334.931 584.613 336.291C586.36 338.003 587.698 338.009 589.61 339.126C592.451 340.792 594.961 339.113 597.37 337.224C600.651 334.619 599.478 339.928 598.668 341.309C597.03 344.156 598.376 345.934 600.62 347.464C601.004 347.727 598.668 354.25 598.463 355.66C598.006 358.695 600.305 359.677 602.863 360.477C604.972 361.139 608.23 362.077 610.37 362.212C613.351 362.4 615.154 362.495 618.113 363.529C622.724 365.137 624.63 360.297 628.744 361.459C632.749 362.586 633.899 361.387 637.637 360.684C640.69 360.109 643.711 361.881 646.947 361.428C650.598 360.913 652.723 362.747 656.375 361.042C658.601 359.999 661.295 359.495 663.575 360.415C664.928 360.961 664.849 362.697 663.983 363.872C663.84 364.068 663.718 364.285 663.681 364.525C663.492 365.774 664.714 366.499 664.707 367.757C664.698 368.969 664 369.428 663.549 370.461C662.999 371.743 663.487 373.412 663.084 374.782C662.722 375.984 661.07 376.441 659.943 376.594C656.388 377.08 654.269 381.995 651.424 384.182C649.473 385.681 647.667 387.662 645.58 388.49C640.535 390.489 639.065 396.979 638.623 401.929C638.031 408.5 644.399 413.059 643.424 419.085C643.266 420.061 642.723 427.397 645.258 426.165C647.832 424.936 648.059 426.797 649.947 423.928C647.933 426.981 654.809 429.675 657.03 428.366C658.273 427.633 660.785 426.454 661.579 425.296C662.414 424.085 661.634 421.599 661.643 420.156C661.651 417.99 661.202 415.351 662.265 413.358C663.044 411.909 664.357 410.838 664.554 409.105C664.719 407.664 664.397 406.401 665.16 405.072C667.411 401.127 666.803 405.2 668.37 406.112C671.84 408.121 670.535 409.194 670.636 412.835C670.715 415.418 673.312 416.28 674.445 418.372C675.373 420.084 673.839 423.983 673.082 425.594C671.674 428.625 674.341 429.828 676.049 431.888C678.716 435.09 677.412 436.246 677.521 439.732C677.577 441.179 678.884 441.799 678.884 443.28C678.884 444.712 678.278 446.102 678.404 447.532C678.586 449.724 680.577 452.025 680.805 454.605C681.088 457.8 679.907 459.392 682.434 461.736C685.291 464.381 685.858 460.98 686.817 459.268C686.842 459.233 691.822 461.813 692.608 461.949C695.802 462.495 695.496 457.907 696.141 456.164C696.857 454.204 698.676 452.526 699.549 450.599C701.099 447.179 698.463 445.692 698.778 442.905C699.392 437.517 697.448 433.066 696.542 427.858C696.15 425.571 695.575 422.67 698.943 422.338C702.782 421.957 702.861 420.063 703.822 416.526C704.703 413.286 701.769 411.969 701.98 409.107C702.216 406.095 704.734 405.225 704.019 401.617C703.444 398.739 701.775 395.232 703.287 392.348C705.255 388.6 708.032 393.578 710.267 393.434C711.4 393.363 711.596 392.112 712.58 391.937C713.895 391.707 715.233 392.582 716.515 392.695C718.773 392.896 721.874 392.363 722.953 390.064C723.89 388.085 722.37 386.352 722.709 384.349C723.04 382.348 723.637 377.857 724.605 376.126C725.322 374.844 726.983 374.77 727.785 373.579C728.682 372.248 728.13 370.621 728.477 369.165C729.178 366.254 731.901 364.581 732.364 361.482C732.79 358.643 732.743 355.741 733.105 352.898C733.309 351.26 728.839 350.309 728.595 348.159C728.36 346.038 732.914 342.637 734.308 341.344C736.394 339.409 736.756 336.422 738.329 334.104C740.052 331.557 739.392 327.897 740.32 325.048C741.563 321.231 740.469 318.153 739.289 314.359C738.579 312.066 736.44 308.295 739.266 306.442C741.162 305.196 743.618 306.023 745.561 304.443C747.583 302.804 748.82 300.341 749.93 298.05C751.425 294.99 752.827 293.363 755.391 291.159C757.603 289.257 758.122 286.164 760.309 284.25C762.205 282.604 764.157 282.856 766.063 281.252C767.701 279.873 769.047 281.293 770.99 280.292C774.484 278.481 775.334 277.683 777.633 280.801C779.419 283.23 781.189 284.229 784.22 284.475C787.596 284.748 787.698 284.634 787.824 281.303C787.981 277.028 781.15 275.481 780.002 270.786C779.043 266.862 781.088 267.182 783.614 265.547C785.676 264.211 787.179 261.389 788.957 259.636C791.208 257.411 791.94 256.448 790.177 253.754C789.664 252.976 788.287 252.561 788.043 251.651C787.689 250.342 789.891 248.806 789.246 247.623C788.924 247.018 785.208 246.695 784.272 246.288C782.14 245.351 780.085 244.888 778.007 246.24C775.615 247.799 773.12 243.966 770.963 243.296C768.745 242.61 765.296 245.175 763.204 245.796C759.906 246.774 762.11 243.379 763.102 242.366C764.866 240.563 766.824 238.685 768.091 236.486C768.98 234.937 769.712 232.597 767.14 232.258C764.684 231.937 765.149 228.772 764.905 226.77C764.684 224.93 760.113 225.083 760.034 227.24C759.995 228.553 760.663 228.846 759.319 229.584C758.548 230.02 756.612 230.116 756.77 228.654C757.131 225.691 757.745 225.633 760.154 223.251C762.319 221.109 761.554 218.186 758.674 217.855C755.951 217.545 756.989 217.824 755.455 215.887C752.597 212.258 750.976 213.327 748.158 215.622C745.735 217.599 743.302 219.646 741.162 221.934C739.841 223.355 739.51 227.781 737.424 228.052C733.834 228.532 732.931 227.448 729.923 226.02C727.758 224.99 725.965 226.367 723.58 225.003C722.012 224.107 718.574 223.44 718.417 221.409C718.142 217.681 715.103 223.061 714.538 223.803C712.862 225.964 710.399 226.65 708.338 228.29C706.835 229.479 707.323 232.526 706.086 234.106C704.118 236.608 702.309 238.441 700.963 241.297C700.175 242.967 695.786 242.81 694.289 243.118C692.912 243.404 692.691 245.169 691.535 245.006C689.379 244.696 687.034 243.559 684.973 245.008C683.587 245.986 682.76 249.311 681.863 250.797C681.117 252.038 683.201 254.585 681.72 255.635C680.155 256.723 677.385 256.332 675.59 257.213C674.244 257.876 672.363 259.774 671.538 260.988C670.531 262.481 668.106 262.902 667.87 264.68C667.657 266.343 670.2 268.518 668.863 269.856C667.533 271.183 665.848 272.463 664.219 273.397C662.976 274.121 661.653 272.285 660.237 272.425C657.018 272.74 651.58 274.352 649.07 276.67C646.992 278.576 643.262 270.606 640.643 273.931C639.605 275.241 641.226 278.26 640.73 280.154C640.281 281.963 642.084 283.584 641.989 285.476C641.918 286.913 651.038 287.539 652.684 287.965C654.479 288.43 656.927 289.915 655.729 292.148C654.257 294.897 654.958 296.436 654.785 299.398C654.518 304.183 648.568 299.307 646.341 303.416C645.586 304.815 642.028 303.573 640.715 304.472C638.031 306.306 636.198 305.58 633.113 305.653C627.361 305.787 623.34 310.749 617.586 306.6C613.556 303.693 611.377 304.131 607.198 307.104C606.287 307.755 605.145 309.054 603.934 308.843C602.832 308.651 600.487 307.834 599.685 309.079C598.765 310.518 600.409 313.054 597.268 311.768C595.914 311.216 595.103 309.6 595.12 309.612C593.97 308.754 591.948 309.691 590.768 308.733C590.177 308.252 590.698 307.565 589.722 306.86C587.1 304.985 583.993 310.025 583.441 309.79C581.716 309.064 579.576 306.134 577.734 305.07C575.799 303.945 574.72 301.977 573.587 300.103C572.611 298.489 576.318 296.237 575.357 293.969C574.877 292.834 573.839 292.387 572.847 291.844C571.831 291.285 572.429 289.898 571.501 289.205C570.839 288.711 574.066 283.844 573.971 282.503C573.744 279.234 573.94 278.562 572.146 275.715C569.204 271.075 565.858 270.887 562.474 274.822C560.412 277.201 560.247 276.627 557.264 276.794C556.428 276.842 552.833 277.065 552.393 277.818C551.204 279.833 551.473 281.345 552.771 282.887C555.289 285.831 553.007 286.377 551.638 288.879C550.23 291.405 550.071 293.558 549.703 296.398C549.397 298.78 547.894 300.513 547.656 302.924C547.389 305.702 550.395 308.95 551.795 311.113C553.354 313.542 553.693 318.351 553.102 321.14C553.038 321.432 553.031 326.272 551.528 324.817C550.104 323.45 547.987 323.911 546.382 324.453C542.495 325.761 538.278 326.154 534.2 326.014C530.729 325.892 528.628 322.505 525.238 322.011C523.019 321.686 521.775 323.863 519.91 324.633C517.509 325.61 514.079 324.945 511.923 323.65C510.176 322.602 509.413 319.486 506.957 319.811C505.611 319.989 505.187 321.304 503.762 321.12C502.259 320.925 501.283 319.563 499.884 319.116C497.46 318.345 496.162 321.052 493.966 318.693C492.354 316.962 492.329 314.58 489.614 314.001C487.017 313.447 486.347 316.255 484.152 316.451C481.216 316.739 480.602 315.788 478.383 313.834C476.401 312.089 467.153 311.361 466.799 309.012C466.295 305.715 466.555 303.86 464.595 300.868C462.612 297.852 460.652 299.628 457.394 299.301C455.411 299.103 455.442 296.655 454.088 295.726C453.002 294.982 449.312 294.596 447.966 294.933C445.156 295.629 442.694 297.17 440.277 298.747C440.757 298.418 435.989 296.882 435.563 296.905C434.217 296.975 432.375 297.314 431.628 298.617C431.345 299.117 431.306 300.533 430.801 300.87C431.062 300.695 426.685 298.844 425.939 298.78C424.074 298.619 420.383 299.024 418.746 298.392C417.178 297.788 418.611 294.821 418.154 293.649C417.092 290.94 413.062 291.163 410.765 291.815C409.214 292.251 407.232 294.668 405.83 292.332C404.689 290.427 401.455 288.757 399.408 288.01C397.016 287.132 395.521 286.137 392.964 287.5C388.959 289.633 389.604 285.689 386.763 284.58C384.307 283.625 381.609 283.908 380.986 280.737C380.773 279.664 380.765 278.246 379.862 277.454C378.781 276.511 376.352 278.097 375.34 277.08C372.826 274.553 371.636 270.854 367.254 270.416C362.271 269.913 359.234 269.616 356.685 265.075C353.813 259.987 353.993 264.821 351.679 265.679C350.193 266.227 343.384 261.327 342.315 260.314C340.585 258.67 340.852 256.919 343.025 256.27C345.63 255.497 344.645 253.878 344.889 251.86C345.117 249.92 347.023 249.186 347.242 247.057C347.503 244.605 345.787 242.624 347.147 240.213C348.406 237.997 349.634 237.714 349.909 234.914C350.027 233.728 350.319 232.468 351.286 231.71C352.86 230.473 353.718 229.28 354.716 227.626C355.953 225.606 358.785 226.181 359.918 223.874C361.138 221.384 366.394 216.819 362.759 214.998C360.336 213.782 360.319 211.502 358.808 209.581C356.722 206.957 355.763 208.812 352.969 208.537C350.443 208.291 351.152 205.553 348.586 206.885C346.579 207.921 346.343 204.786 346.099 203.44C345.547 200.414 342.361 195.383 338.536 196.07C336.404 196.454 335.672 193.981 333.735 193.477C332.168 193.068 330.516 193.039 328.912 192.904C325.872 192.652 322.029 192.063 321.659 188.339C321.285 184.624 320.038 180.001 315.752 178.913C312.336 178.047 309.909 184.93 310.279 185.052C308.633 184.512 308.178 183.053 307.926 181.533C307.717 180.276 306.297 179.823 306.196 178.642C305.979 176.13 311.555 174.925 308.344 171.927C305.247 169.033 307.943 165.737 307.486 162.433C307.32 161.201 305.195 160.126 304.55 159.005C303.314 156.871 304.118 157.198 304.841 155.776C305.226 155.031 300.733 154.543 300.655 153.867C300.411 151.748 300.764 149.447 300.663 147.278C300.572 145.244 301.172 141.582 303.983 143.093C307.25 144.857 306.132 146.106 307.455 149.546C308.226 151.554 310.984 154.545 313.407 153.605C317.162 152.176 315.175 151.949 315.551 149.025C315.787 147.197 319.19 148.039 319.769 146.197C320.28 144.59 324.491 145.459 325.845 144.721C329.604 142.668 331.014 140.348 328.779 136.206C326.59 132.142 320.077 130.934 323.453 125.335C326.404 120.44 318.783 118.56 314.879 118.728C311.286 118.895 310.957 118.13 311.358 114.148C311.501 112.736 311.524 111.15 312.156 109.839C312.963 108.181 314.993 107.652 315.781 106.145C316.025 105.684 314.53 103.221 314.4 102.727C313.829 100.593 312.235 102.785 310.906 101.453C309.626 100.176 309.634 99.3446 310.846 97.8022C313.238 94.7733 315.812 97.1675 319.023 98.4349C320.168 98.8856 324.504 100.87 324.626 98.1392C324.721 95.9311 327.049 95.654 327.793 93.5782C328.628 91.2378 328.866 88.8167 329.408 86.4349C329.699 85.1386 333.603 84.5597 334.5 84.324C337.765 83.4701 334.147 80.468 336.247 78.9443C338.034 77.6397 340.238 78.9877 341.811 77.6541C344.259 75.5866 343.448 74.5156 343.306 71.7844C343.18 69.3737 344.918 66.9134 345.241 64.484C345.555 62.1456 348.247 61.0188 349.105 58.9989C349.806 57.3283 349.711 53.0092 349.128 51.2663C348.326 48.8494 344.383 47.5551 342.652 46.0665C339.473 43.3415 339.646 41.9501 335.003 41.7392C332.72 41.6379 329.085 40.3973 327.466 38.7309C326.356 37.5876 325.903 34.8998 323.83 35.9232C321.115 37.2609 319.019 39.4318 315.975 40.1989C314.503 40.571 308.739 38.3836 308.443 39.4545C307.081 44.4145 298.928 40.7654 295.221 42.9404C293.081 44.2057 293.309 47.3029 291.066 48.5351C289.019 49.6578 284.282 51.0223 282.059 51.0327C280.945 51.041 280.199 51.6405 279.521 52.3993C278.927 53.0692 277.215 52.5192 276.506 52.4903C273.845 52.3745 274.467 49.7074 273.744 47.6709C271.813 42.2085 268.164 41.7702 262.939 42.4276C256.73 43.2071 256.211 38.9501 254.762 33.6613C254.1 31.2444 253.329 30.7234 250.964 29.7537C248.307 28.6641 248.111 24.8723 245.421 24.3781C242.532 23.8489 240.333 23.4519 237.661 22.1163C234.812 20.6917 235.78 18.2169 233.727 16.5422C230.28 13.7511 228.264 12.1508 226.147 8.20389C224.88 5.80349 224.818 6.65117 222.67 5.49129C220.966 4.57331 222.614 1.75114 220.706 1.12674C217.513 0.0867791 218.322 1.56713 215.555 2.54094C213.951 3.1033 211.84 0.576787 211.228 2.64018C210.54 4.97855 207.285 3.24596 206.593 2.10055C205.594 0.450665 204.24 -0.934574 202.633 0.802148C201.657 1.86072 200.595 3.79179 198.868 3.492C196.11 3.01026 196.489 0.589189 193.528 2.67532C192.112 3.67601 188.587 4.48441 187.846 5.77248C186.486 8.13153 183.498 5.32176 181.724 5.15016C178.408 4.82762 181.532 9.47749 178.16 10.4596C176.113 11.0571 174.827 9.77314 173.045 9.1074C169.865 7.92064 167.08 10.8772 163.967 9.89512C159.556 8.50575 162.24 16.8854 158.266 16.598C156.689 16.4843 155.078 18.0453 155.519 19.6993C156.486 23.4002 153.102 21.3223 151.104 23.3237C149.031 25.4016 148.481 24.8826 145.985 25.8833C144.242 26.5801 145.423 31.5959 146.202 32.7227C148.249 35.7475 144.873 41.1541 151.185 40.4263C153.747 40.1306 157.22 39.7916 159.763 40.3973C160.582 40.5938 161.459 41.5634 161.899 42.194C163.272 44.1499 165.217 45.2477 166.53 47.0568C167.318 48.1381 167.955 49.664 168.809 50.6233C171.48 53.6316 172.243 49.9121 174.228 49.2691C174.614 49.145 175.503 56.7597 176.471 57.3779C177.84 58.2484 178.985 59.892 180.153 61.0602C181.365 62.2697 183.887 61.4365 185.276 62.2986C186.544 63.0864 185.969 65.2035 184.898 65.7514C182.938 66.7604 183.095 67.5026 181.962 69.1132C180.01 71.8899 175.218 69.8327 173.614 73.3764C172.952 74.8361 165.871 78.9277 165.889 79.0828C166.09 80.4908 167.248 81.2889 167.006 83.1476C166.797 84.7995 166.009 86.8009 167.111 88.3143C168.579 90.326 169.904 89.4969 169.007 92.4886C168.323 94.7857 165.993 94.1303 166.663 96.9628C167.285 99.6092 169.559 99.5224 169.731 101.931C169.94 104.803 169.621 107.718 171.705 110.034C170.146 108.299 169.627 116.102 169.605 116.821C169.47 120.458 166.406 123.698 169.787 126.985C174.43 131.501 180.37 129.992 185.175 133.424C186.8 134.586 188.26 138.384 190.452 138.181C191.318 138.1 196.472 137.548 197.109 138.429C197.448 138.896 195.995 142.428 196.464 143.645C197.059 145.188 199.085 146.84 200.646 147.171C202.637 147.601 205.152 147.874 207.19 147.871C208.989 147.876 208.501 149.821 210.579 149.685Z" fill="url(#paint0_linear_12261_4599)"/>
<path d="M256.795 844.816C255.741 844.816 254.73 844.398 253.985 843.653C253.24 842.908 252.821 841.897 252.821 840.843C252.821 839.79 253.24 838.779 253.985 838.034C254.73 837.289 255.741 836.87 256.795 836.87C257.848 836.87 258.859 837.289 259.604 838.034C260.349 838.779 260.768 839.79 260.768 840.843C260.768 841.365 260.665 841.882 260.465 842.364C260.266 842.846 259.973 843.284 259.604 843.653C259.235 844.022 258.797 844.314 258.315 844.514C257.833 844.714 257.316 844.816 256.795 844.816ZM256.795 829.719C253.844 829.719 251.015 830.891 248.928 832.977C246.842 835.063 245.67 837.893 245.67 840.843C245.67 849.187 256.795 861.503 256.795 861.503C256.795 861.503 267.919 849.187 267.919 840.843C267.919 837.893 266.747 835.063 264.661 832.977C262.575 830.891 259.745 829.719 256.795 829.719Z" fill="white"/>
<path d="M288.314 804.02C287.26 804.02 286.25 803.601 285.505 802.856C284.76 802.111 284.341 801.1 284.341 800.047C284.341 798.993 284.76 797.982 285.505 797.237C286.25 796.492 287.26 796.073 288.314 796.073C289.368 796.073 290.378 796.492 291.123 797.237C291.869 797.982 292.287 798.993 292.287 800.047C292.287 800.568 292.184 801.085 291.985 801.567C291.785 802.049 291.492 802.487 291.123 802.856C290.755 803.225 290.317 803.517 289.835 803.717C289.352 803.917 288.836 804.02 288.314 804.02ZM288.314 788.922C285.364 788.922 282.534 790.094 280.448 792.18C278.362 794.266 277.189 797.096 277.189 800.047C277.189 808.39 288.314 820.707 288.314 820.707C288.314 820.707 299.439 808.39 299.439 800.047C299.439 797.096 298.267 794.266 296.18 792.18C294.094 790.094 291.265 788.922 288.314 788.922Z" fill="white"/>
<path d="M238.254 796.606C237.2 796.606 236.189 796.187 235.444 795.442C234.699 794.697 234.28 793.686 234.28 792.632C234.28 791.579 234.699 790.568 235.444 789.823C236.189 789.078 237.2 788.659 238.254 788.659C239.307 788.659 240.318 789.078 241.063 789.823C241.808 790.568 242.227 791.579 242.227 792.632C242.227 793.154 242.124 793.671 241.924 794.153C241.725 794.635 241.432 795.073 241.063 795.442C240.694 795.811 240.256 796.103 239.774 796.303C239.292 796.503 238.775 796.606 238.254 796.606ZM238.254 781.508C235.303 781.508 232.474 782.68 230.387 784.766C228.301 786.852 227.129 789.682 227.129 792.632C227.129 800.976 238.254 813.292 238.254 813.292C238.254 813.292 249.378 800.976 249.378 792.632C249.378 789.682 248.206 786.852 246.12 784.766C244.034 782.68 241.204 781.508 238.254 781.508Z" fill="white"/>
<path d="M267.918 768.793C266.864 768.793 265.853 768.374 265.108 767.629C264.363 766.884 263.945 765.874 263.945 764.82C263.945 763.766 264.363 762.756 265.108 762.011C265.853 761.265 266.864 760.847 267.918 760.847C268.971 760.847 269.982 761.265 270.727 762.011C271.472 762.756 271.891 763.766 271.891 764.82C271.891 765.342 271.788 765.858 271.588 766.34C271.389 766.822 271.096 767.26 270.727 767.629C270.358 767.998 269.92 768.291 269.438 768.491C268.956 768.69 268.439 768.793 267.918 768.793ZM267.918 753.695C264.967 753.695 262.138 754.867 260.051 756.954C257.965 759.04 256.793 761.87 256.793 764.82C256.793 773.163 267.918 785.48 267.918 785.48C267.918 785.48 279.042 773.163 279.042 764.82C279.042 761.87 277.87 759.04 275.784 756.954C273.698 754.867 270.868 753.695 267.918 753.695Z" fill="white"/>
<path d="M330.957 734.488C329.903 734.488 328.892 734.07 328.147 733.325C327.402 732.58 326.984 731.569 326.984 730.515C326.984 729.462 327.402 728.451 328.147 727.706C328.892 726.961 329.903 726.542 330.957 726.542C332.01 726.542 333.021 726.961 333.766 727.706C334.511 728.451 334.93 729.462 334.93 730.515C334.93 731.037 334.827 731.554 334.627 732.036C334.428 732.518 334.135 732.956 333.766 733.325C333.397 733.694 332.959 733.986 332.477 734.186C331.995 734.386 331.478 734.488 330.957 734.488ZM330.957 719.391C328.006 719.391 325.177 720.563 323.09 722.649C321.004 724.735 319.832 727.565 319.832 730.515C319.832 738.859 330.957 751.175 330.957 751.175C330.957 751.175 342.081 738.859 342.081 730.515C342.081 727.565 340.909 724.735 338.823 722.649C336.737 720.563 333.907 719.391 330.957 719.391Z" fill="white"/>
<path d="M247.523 720.59C246.469 720.59 245.459 720.171 244.714 719.426C243.969 718.681 243.55 717.671 243.55 716.617C243.55 715.563 243.969 714.553 244.714 713.807C245.459 713.062 246.469 712.644 247.523 712.644C248.577 712.644 249.587 713.062 250.332 713.807C251.078 714.553 251.496 715.563 251.496 716.617C251.496 717.139 251.393 717.655 251.194 718.137C250.994 718.619 250.701 719.057 250.332 719.426C249.964 719.795 249.526 720.088 249.043 720.287C248.561 720.487 248.045 720.59 247.523 720.59ZM247.523 705.492C244.573 705.492 241.743 706.664 239.657 708.751C237.57 710.837 236.398 713.666 236.398 716.617C236.398 724.96 247.523 737.277 247.523 737.277C247.523 737.277 258.648 724.96 258.648 716.617C258.648 713.666 257.476 710.837 255.389 708.751C253.303 706.664 250.473 705.492 247.523 705.492Z" fill="white"/>
<path d="M354.134 629.738C353.081 629.738 352.07 629.32 351.325 628.575C350.58 627.83 350.161 626.819 350.161 625.765C350.161 624.712 350.58 623.701 351.325 622.956C352.07 622.211 353.081 621.792 354.134 621.792C355.188 621.792 356.199 622.211 356.944 622.956C357.689 623.701 358.107 624.712 358.107 625.765C358.107 626.287 358.005 626.804 357.805 627.286C357.605 627.768 357.313 628.206 356.944 628.575C356.575 628.944 356.137 629.236 355.655 629.436C355.173 629.636 354.656 629.738 354.134 629.738ZM354.134 614.641C351.184 614.641 348.354 615.813 346.268 617.899C344.182 619.985 343.01 622.815 343.01 625.765C343.01 634.109 354.134 646.425 354.134 646.425C354.134 646.425 365.259 634.109 365.259 625.765C365.259 622.815 364.087 619.985 362.001 617.899C359.914 615.813 357.085 614.641 354.134 614.641Z" fill="white"/>
<path d="M383.798 611.191C382.745 611.191 381.734 610.773 380.989 610.028C380.244 609.283 379.825 608.272 379.825 607.218C379.825 606.165 380.244 605.154 380.989 604.409C381.734 603.664 382.745 603.245 383.798 603.245C384.852 603.245 385.863 603.664 386.608 604.409C387.353 605.154 387.772 606.165 387.772 607.218C387.772 607.74 387.669 608.257 387.469 608.739C387.269 609.221 386.977 609.659 386.608 610.028C386.239 610.397 385.801 610.689 385.319 610.889C384.837 611.089 384.32 611.191 383.798 611.191ZM383.798 596.094C380.848 596.094 378.018 597.266 375.932 599.352C373.846 601.438 372.674 604.268 372.674 607.218C372.674 615.562 383.798 627.878 383.798 627.878C383.798 627.878 394.923 615.562 394.923 607.218C394.923 604.268 393.751 601.438 391.665 599.352C389.578 597.266 386.749 596.094 383.798 596.094Z" fill="white"/>
<path d="M296.656 602.848C295.602 602.848 294.592 602.429 293.846 601.684C293.101 600.939 292.683 599.928 292.683 598.875C292.683 597.821 293.101 596.81 293.846 596.065C294.592 595.32 295.602 594.902 296.656 594.902C297.71 594.902 298.72 595.32 299.465 596.065C300.21 596.81 300.629 597.821 300.629 598.875C300.629 599.396 300.526 599.913 300.327 600.395C300.127 600.877 299.834 601.315 299.465 601.684C299.096 602.053 298.658 602.346 298.176 602.545C297.694 602.745 297.178 602.848 296.656 602.848ZM296.656 587.75C293.705 587.75 290.876 588.922 288.79 591.008C286.703 593.095 285.531 595.924 285.531 598.875C285.531 607.218 296.656 619.535 296.656 619.535C296.656 619.535 307.781 607.218 307.781 598.875C307.781 595.924 306.608 593.095 304.522 591.008C302.436 588.922 299.606 587.75 296.656 587.75Z" fill="white"/>
<path d="M158.33 586.16C157.276 586.16 156.265 585.742 155.52 584.997C154.775 584.251 154.357 583.241 154.357 582.187C154.357 581.133 154.775 580.123 155.52 579.378C156.265 578.633 157.276 578.214 158.33 578.214C159.383 578.214 160.394 578.633 161.139 579.378C161.884 580.123 162.303 581.133 162.303 582.187C162.303 582.709 162.2 583.226 162 583.708C161.801 584.19 161.508 584.628 161.139 584.997C160.77 585.365 160.332 585.658 159.85 585.858C159.368 586.057 158.851 586.16 158.33 586.16ZM158.33 571.062C155.379 571.062 152.55 572.235 150.463 574.321C148.377 576.407 147.205 579.237 147.205 582.187C147.205 590.531 158.33 602.847 158.33 602.847C158.33 602.847 169.454 590.531 169.454 582.187C169.454 579.237 168.282 576.407 166.196 574.321C164.11 572.235 161.28 571.062 158.33 571.062Z" fill="white"/>
<path d="M150.914 466.574C149.86 466.574 148.849 466.156 148.104 465.411C147.359 464.665 146.941 463.655 146.941 462.601C146.941 461.547 147.359 460.537 148.104 459.792C148.849 459.047 149.86 458.628 150.914 458.628C151.967 458.628 152.978 459.047 153.723 459.792C154.468 460.537 154.887 461.547 154.887 462.601C154.887 463.123 154.784 463.64 154.584 464.122C154.385 464.604 154.092 465.042 153.723 465.411C153.354 465.78 152.916 466.072 152.434 466.272C151.952 466.472 151.435 466.574 150.914 466.574ZM150.914 451.477C147.963 451.477 145.134 452.649 143.047 454.735C140.961 456.821 139.789 459.651 139.789 462.601C139.789 470.945 150.914 483.261 150.914 483.261C150.914 483.261 162.038 470.945 162.038 462.601C162.038 459.651 160.866 456.821 158.78 454.735C156.694 452.649 153.864 451.477 150.914 451.477Z" fill="white"/>
<path d="M214.879 468.426C213.825 468.426 212.814 468.007 212.069 467.262C211.324 466.517 210.905 465.506 210.905 464.453C210.905 463.399 211.324 462.388 212.069 461.643C212.814 460.898 213.825 460.48 214.879 460.48C215.932 460.48 216.943 460.898 217.688 461.643C218.433 462.388 218.852 463.399 218.852 464.453C218.852 464.975 218.749 465.491 218.549 465.973C218.35 466.455 218.057 466.893 217.688 467.262C217.319 467.631 216.881 467.924 216.399 468.123C215.917 468.323 215.4 468.426 214.879 468.426ZM214.879 453.328C211.928 453.328 209.099 454.5 207.012 456.586C204.926 458.673 203.754 461.502 203.754 464.453C203.754 472.796 214.879 485.113 214.879 485.113C214.879 485.113 226.003 472.796 226.003 464.453C226.003 461.502 224.831 458.673 222.745 456.586C220.659 454.5 217.829 453.328 214.879 453.328Z" fill="white"/>
<path d="M199.316 322.879C198.262 322.879 197.252 322.46 196.507 321.715C195.762 320.97 195.343 319.96 195.343 318.906C195.343 317.852 195.762 316.842 196.507 316.096C197.252 315.351 198.262 314.933 199.316 314.933C200.37 314.933 201.38 315.351 202.125 316.096C202.871 316.842 203.289 317.852 203.289 318.906C203.289 319.428 203.186 319.944 202.987 320.426C202.787 320.908 202.494 321.346 202.125 321.715C201.756 322.084 201.319 322.377 200.836 322.577C200.354 322.776 199.838 322.879 199.316 322.879ZM199.316 307.781C196.366 307.781 193.536 308.953 191.45 311.04C189.363 313.126 188.191 315.955 188.191 318.906C188.191 327.249 199.316 339.566 199.316 339.566C199.316 339.566 210.441 327.249 210.441 318.906C210.441 315.955 209.269 313.126 207.182 311.04C205.096 308.953 202.266 307.781 199.316 307.781Z" fill="white"/>
<path d="M238.254 289.504C237.2 289.504 236.189 289.085 235.444 288.34C234.699 287.595 234.28 286.585 234.28 285.531C234.28 284.477 234.699 283.467 235.444 282.721C236.189 281.976 237.2 281.558 238.254 281.558C239.307 281.558 240.318 281.976 241.063 282.721C241.808 283.467 242.227 284.477 242.227 285.531C242.227 286.053 242.124 286.569 241.924 287.051C241.725 287.533 241.432 287.971 241.063 288.34C240.694 288.709 240.256 289.002 239.774 289.202C239.292 289.401 238.775 289.504 238.254 289.504ZM238.254 274.406C235.303 274.406 232.474 275.578 230.387 277.665C228.301 279.751 227.129 282.58 227.129 285.531C227.129 293.874 238.254 306.191 238.254 306.191C238.254 306.191 249.378 293.874 249.378 285.531C249.378 282.58 248.206 279.751 246.12 277.665C244.034 275.578 241.204 274.406 238.254 274.406Z" fill="white"/>
<path d="M334.666 334.926C333.612 334.926 332.601 334.507 331.856 333.762C331.111 333.017 330.693 332.006 330.693 330.953C330.693 329.899 331.111 328.888 331.856 328.143C332.601 327.398 333.612 326.98 334.666 326.98C335.719 326.98 336.73 327.398 337.475 328.143C338.22 328.888 338.639 329.899 338.639 330.953C338.639 331.475 338.536 331.991 338.336 332.473C338.137 332.955 337.844 333.393 337.475 333.762C337.106 334.131 336.668 334.424 336.186 334.623C335.704 334.823 335.187 334.926 334.666 334.926ZM334.666 319.828C331.715 319.828 328.886 321 326.799 323.086C324.713 325.173 323.541 328.002 323.541 330.953C323.541 339.296 334.666 351.613 334.666 351.613C334.666 351.613 345.79 339.296 345.79 330.953C345.79 328.002 344.618 325.173 342.532 323.086C340.446 321 337.616 319.828 334.666 319.828Z" fill="white"/>
<path d="M357.841 501.801C356.788 501.801 355.777 501.382 355.032 500.637C354.287 499.892 353.868 498.881 353.868 497.828C353.868 496.774 354.287 495.763 355.032 495.018C355.777 494.273 356.788 493.855 357.841 493.855C358.895 493.855 359.906 494.273 360.651 495.018C361.396 495.763 361.815 496.774 361.815 497.828C361.815 498.35 361.712 498.866 361.512 499.348C361.312 499.83 361.02 500.268 360.651 500.637C360.282 501.006 359.844 501.299 359.362 501.498C358.88 501.698 358.363 501.801 357.841 501.801ZM357.841 486.703C354.891 486.703 352.061 487.875 349.975 489.961C347.889 492.048 346.717 494.877 346.717 497.828C346.717 506.171 357.841 518.488 357.841 518.488C357.841 518.488 368.966 506.171 368.966 497.828C368.966 494.877 367.794 492.048 365.708 489.961C363.621 487.875 360.792 486.703 357.841 486.703Z" fill="white"/>
<path d="M426.445 574.106C425.391 574.106 424.381 573.687 423.636 572.942C422.89 572.197 422.472 571.186 422.472 570.132C422.472 569.079 422.89 568.068 423.636 567.323C424.381 566.578 425.391 566.159 426.445 566.159C427.499 566.159 428.509 566.578 429.254 567.323C429.999 568.068 430.418 569.079 430.418 570.132C430.418 570.654 430.315 571.171 430.116 571.653C429.916 572.135 429.623 572.573 429.254 572.942C428.885 573.311 428.447 573.603 427.965 573.803C427.483 574.003 426.967 574.106 426.445 574.106ZM426.445 559.008C423.495 559.008 420.665 560.18 418.579 562.266C416.492 564.352 415.32 567.182 415.32 570.132C415.32 578.476 426.445 590.792 426.445 590.792C426.445 590.792 437.57 578.476 437.57 570.132C437.57 567.182 436.398 564.352 434.311 562.266C432.225 560.18 429.395 559.008 426.445 559.008Z" fill="white"/>
<path d="M593.314 322.879C592.26 322.879 591.25 322.46 590.505 321.715C589.76 320.97 589.341 319.96 589.341 318.906C589.341 317.852 589.76 316.842 590.505 316.096C591.25 315.351 592.26 314.933 593.314 314.933C594.368 314.933 595.378 315.351 596.123 316.096C596.869 316.842 597.287 317.852 597.287 318.906C597.287 319.428 597.184 319.944 596.985 320.426C596.785 320.908 596.492 321.346 596.123 321.715C595.755 322.084 595.317 322.377 594.835 322.577C594.352 322.776 593.836 322.879 593.314 322.879ZM593.314 307.781C590.364 307.781 587.534 308.953 585.448 311.04C583.362 313.126 582.189 315.955 582.189 318.906C582.189 327.249 593.314 339.566 593.314 339.566C593.314 339.566 604.439 327.249 604.439 318.906C604.439 315.955 603.267 313.126 601.18 311.04C599.094 308.953 596.265 307.781 593.314 307.781Z" fill="white"/>
<defs>
<linearGradient id="paint0_linear_12261_4599" x1="630.197" y1="781.437" x2="108.355" y2="126.911" gradientUnits="userSpaceOnUse">
<stop stop-color="#80C56E"/>
<stop offset="0.776042" stop-color="#66AD66"/>
<stop offset="1" stop-color="#5E9E5E"/>
</linearGradient>
</defs>
</svg>
