<svg width="280" height="300" viewBox="0 0 280 300" fill="none" xmlns="http://www.w3.org/2000/svg">
<g filter="url(#filter0_d_12244_6570)">
<g clip-path="url(#clip0_12244_6570)">
<rect x="19" y="19" width="240" height="260" rx="22" fill="white"/>
<g clip-path="url(#clip1_12244_6570)">
<rect width="264" height="220" transform="translate(7 35)" fill="white"/>
<g clip-path="url(#clip2_12244_6570)">
<path d="M301 260H1V9.00002H301V260Z" fill="white"/>
<path d="M171.876 140.09C159.68 115.037 153.01 127.704 140.599 105.764C126.875 81.5051 116.177 90.5471 110.081 76.2763C99.1451 50.6763 68.0601 69.1539 71.8906 89.1315C74.9311 104.989 57.3686 105.39 64.2126 138.453C66.7966 150.936 51.9806 155.266 58.8331 177.863C61.7066 187.337 69.2706 193.229 77.4426 196.894C90.3736 202.692 105.767 203.109 120.058 198.618C165.788 184.245 182.72 162.365 171.876 140.09Z" fill="#ADF7F3"/>
<path d="M117.194 244.129C135.483 236.845 150.589 222.876 158.515 204.794C163.524 193.368 165.973 179.877 160.576 166.322C147.706 133.992 129.03 141.924 120.711 125.116C98.6795 80.5995 80.678 95.5144 69.8685 74.3752C56.25 47.7431 8.85277 53.4413 20.2461 92.8468C26.5977 114.814 7.93967 113.648 15.3596 153.934C22.0701 190.367 4.28986 181.45 13.9389 221.322C16.2655 230.935 20.6186 238.725 26.8955 244.51C43.5211 244.735 103.293 244.735 117.194 244.129Z" fill="#D2FFFF"/>
<path d="M106.236 234.273C106.236 234.273 83.6397 136.625 38.8281 68.5622" stroke="#ADF7F3" stroke-width="6.66667" stroke-miterlimit="10" stroke-linecap="round" stroke-linejoin="round"/>
<path d="M102.331 219.148C102.331 219.148 72.4772 201.194 17.7402 204.413" stroke="#ADF7F3" stroke-width="6.66667" stroke-miterlimit="10" stroke-linecap="round" stroke-linejoin="round"/>
<path d="M98.6484 205.594C98.6484 205.594 105.428 167.301 142.499 155.789" stroke="#D6C5FB" stroke-width="7.39309" stroke-miterlimit="10" stroke-linecap="round" stroke-linejoin="round"/>
<path d="M81.5085 155.25C81.5085 155.25 60.937 138.528 24.4453 140.673" stroke="#ADF7F3" stroke-width="6.66667" stroke-miterlimit="10" stroke-linecap="round" stroke-linejoin="round"/>
<path d="M85.1355 94.6843C85.1355 94.6843 71.5925 108.771 70.0195 125.266" stroke="#ADF7F3" stroke-width="6.66667" stroke-miterlimit="10" stroke-linecap="round" stroke-linejoin="round"/>
<path d="M52.7275 91.8203C52.7275 91.8203 45.3475 78.9259 26.6895 77.7608" stroke="#ADF7F3" stroke-width="6.66667" stroke-miterlimit="10" stroke-linecap="round" stroke-linejoin="round"/>
<path d="M159.96 231.879C176.335 241.316 195.808 244.359 214.067 239.532C225.606 236.482 237.159 230.269 244.074 218.101C260.566 189.083 243.475 179.741 251.077 163.428C271.21 120.222 249.3 115.561 258.653 94.7819C270.436 68.6036 237.858 36.2733 215.192 68.4053C202.556 86.3177 192.281 71.5549 166.583 101.217C143.341 128.042 139.388 109.31 115.332 140.405C93.9407 168.054 107.562 201.678 159.96 231.879Z" fill="#D2FFFF"/>
<path d="M160.783 217.727C160.783 217.727 220.319 142.353 244.454 67.9048" stroke="#ADF7F3" stroke-width="6.66667" stroke-miterlimit="10" stroke-linecap="round" stroke-linejoin="round"/>
<path d="M169.764 205.75C169.764 205.75 165.357 172.516 130.248 133.17" stroke="#D6C5FB" stroke-width="7.09439" stroke-miterlimit="10" stroke-linecap="round" stroke-linejoin="round"/>
<path d="M177.701 194.874C177.701 194.874 210.392 177.108 241.15 198.18" stroke="#D6C5FB" stroke-width="7.09439" stroke-miterlimit="10" stroke-linecap="round" stroke-linejoin="round"/>
<path d="M205.116 151.875C205.116 151.875 205.333 126.374 181.928 100.144" stroke="#ADF7F3" stroke-width="6.66667" stroke-miterlimit="10" stroke-linecap="round" stroke-linejoin="round"/>
<path d="M252.582 118.423C252.582 118.423 233.954 116.628 220.678 125.297" stroke="#ADF7F3" stroke-width="6.66667" stroke-miterlimit="10" stroke-linecap="round" stroke-linejoin="round"/>
<path d="M235.362 92.2812C235.362 92.2812 240.597 79.0139 230.322 64.2506" stroke="#ADF7F3" stroke-width="6.66667" stroke-miterlimit="10" stroke-linecap="round" stroke-linejoin="round"/>
<path d="M220.586 245.392C234.24 220.608 221.484 223.925 232.652 200.978C245.002 175.605 233.19 173.711 241.356 160.204C256.004 135.974 227.661 125.482 214.086 141.015C203.31 153.344 194.996 140.993 172.759 167.061C164.363 176.903 154.288 169.038 140.082 188.415C134.125 196.539 133.054 205.739 133.969 213.949C135.417 226.942 141.725 236.722 151.685 244.107C180.938 244.107 207.662 245.693 220.586 245.392Z" fill="#ADF7F3"/>
<path d="M97.8535 211.895C87.5365 198.372 86.286 206.23 76.379 194.525C65.425 181.583 61.541 187.662 56.093 179.892C46.3198 165.953 33.7367 179.109 38.9942 190.36C43.167 199.291 34.3858 200.918 43.3405 219.499C46.7215 226.514 39.9785 230.195 47.1944 242.721C50.0682 244.11 87.3125 245.8 91.436 244.544C102.828 239.244 107.027 223.919 97.8535 211.895Z" fill="#ADF7F3"/>
<path d="M201.868 234.115C193.398 226.268 188.071 215.439 187.53 203.88C187.189 196.575 188.679 188.683 194.471 182.414C208.286 167.464 216.831 175.747 224.903 168.318C246.281 148.643 252.992 160.601 263.334 151.331C276.363 139.653 301.075 152.786 286.584 171.917C278.506 182.582 288.949 185.889 276.445 206.34C265.136 224.836 276.725 223.72 263.09 243.475C248.401 245.694 214.852 246.145 201.868 234.115Z" fill="#D2FFFF"/>
<path d="M209.924 231.047C209.924 231.047 242.752 182.449 281.519 154.718" stroke="#ADF7F3" stroke-width="6.66667" stroke-miterlimit="10" stroke-linecap="round" stroke-linejoin="round"/>
<path d="M215.229 223.602C215.229 223.602 235.313 220.1 264.557 233.43" stroke="#ADF7F3" stroke-width="6.66667" stroke-miterlimit="10" stroke-linecap="round" stroke-linejoin="round"/>
<path d="M220.085 216.977C220.085 216.977 224.41 194.612 206.561 180.484" stroke="#ADF7F3" stroke-width="6.66667" stroke-miterlimit="10" stroke-linecap="round" stroke-linejoin="round"/>
<path d="M240.012 193.077C240.012 193.077 254.763 188.285 274.26 197.172" stroke="#ADF7F3" stroke-width="6.66667" stroke-miterlimit="10" stroke-linecap="round" stroke-linejoin="round"/>
<path d="M250.729 159.206C250.729 159.206 255.177 169.769 252.578 179.117" stroke="#ADF7F3" stroke-width="6.66667" stroke-miterlimit="10" stroke-linecap="round" stroke-linejoin="round"/>
<path d="M106.389 242.523H189.946C194.703 242.523 198.559 238.651 198.559 233.875V46.2022C198.559 41.4262 194.703 37.5538 189.945 37.5538H106.389C101.632 37.5538 97.7754 41.4257 97.7754 46.2022V233.875C97.7754 238.651 101.632 242.523 106.389 242.523Z" fill="#006476"/>
<path d="M107.721 239.859H188.614C193.189 239.859 196.899 236.135 196.899 231.541V52.0908C196.899 47.4965 193.189 43.7722 188.614 43.7722H107.721C103.145 43.7722 99.4355 47.4965 99.4355 52.0908V231.541C99.4355 236.135 103.145 239.859 107.721 239.859Z" fill="#0BA8A0"/>
<path d="M136.538 38.1719H159.796C160.51 38.1719 161.088 38.0544 161.088 37.9098C161.088 37.7653 160.51 37.6478 159.796 37.6478H136.538C135.825 37.6478 135.246 37.7653 135.246 37.9098C135.246 38.0544 135.825 38.1719 136.538 38.1719Z" fill="#72706F"/>
<path d="M150.3 40.5533C150.3 39.3706 149.345 38.4117 148.167 38.4117C146.989 38.4117 146.033 39.3706 146.033 40.5533C146.033 41.7365 146.989 42.6953 148.167 42.6953C149.345 42.6953 150.3 41.7365 150.3 40.5533Z" fill="#72706F"/>
<path d="M148.877 40.5513C148.877 40.1572 148.559 39.8374 148.166 39.8374C147.774 39.8374 147.455 40.1572 147.455 40.5513C147.455 40.9459 147.774 41.2656 148.166 41.2656C148.559 41.2656 148.877 40.9459 148.877 40.5513Z" stroke="#050101" stroke-width="1.89631" stroke-miterlimit="10"/>
<path d="M189.493 63.1875H153.407C152.792 63.1875 152.295 62.6875 152.295 62.0711V59.1168C152.295 58.5003 152.792 58.0003 153.407 58.0003H189.493C190.107 58.0003 190.605 58.5003 190.605 59.1168V62.0711C190.605 62.6875 190.107 63.1875 189.493 63.1875Z" fill="white"/>
<path d="M189.513 71.5312H153.386C152.783 71.5312 152.295 71.0408 152.295 70.4354V70.0338C152.295 69.4284 152.783 68.9379 153.386 68.9379H189.513C190.116 68.9379 190.605 69.4284 190.605 70.0338V70.4354C190.605 71.0408 190.116 71.5312 189.513 71.5312Z" fill="white"/>
<path d="M173.295 76.9922H153.372C152.777 76.9922 152.295 76.5083 152.295 75.9104V75.4807C152.295 74.8828 152.777 74.3988 153.372 74.3988H173.295C173.891 74.3988 174.373 74.8828 174.373 75.4807V75.9104C174.373 76.5083 173.891 76.9922 173.295 76.9922Z" fill="white"/>
<path d="M182.785 82.4609H153.38C152.781 82.4609 152.295 81.973 152.295 81.3716V80.9569C152.295 80.3556 152.781 79.8676 153.38 79.8676H182.785C183.384 79.8676 183.87 80.3556 183.87 80.9569V81.3716C183.87 81.973 183.384 82.4609 182.785 82.4609Z" fill="white"/>
<path d="M186.557 87.9297H153.386C152.783 87.9297 152.295 87.4392 152.295 86.8343V86.4317C152.295 85.8268 152.783 85.3364 153.386 85.3364H186.557C187.16 85.3364 187.649 85.8268 187.649 86.4317V86.8343C187.649 87.4392 187.16 87.9297 186.557 87.9297Z" fill="white"/>
<path d="M178.193 93.3984H153.376C152.779 93.3984 152.295 92.912 152.295 92.3126V91.8909C152.295 91.291 152.779 90.8051 153.376 90.8051H178.193C178.791 90.8051 179.275 91.291 179.275 91.8909V92.3126C179.275 92.912 178.791 93.3984 178.193 93.3984Z" fill="white"/>
<path d="M189.493 113.227H153.407C152.792 113.227 152.295 112.727 152.295 112.11V109.155C152.295 108.539 152.792 108.039 153.407 108.039H189.493C190.107 108.039 190.605 108.539 190.605 109.155V112.11C190.605 112.727 190.107 113.227 189.493 113.227Z" fill="white"/>
<path d="M184.111 121.57H153.381C152.781 121.57 152.295 121.082 152.295 120.479V120.067C152.295 119.465 152.781 118.977 153.381 118.977H184.111C184.711 118.977 185.198 119.465 185.198 120.067V120.479C185.198 121.082 184.711 121.57 184.111 121.57Z" fill="white"/>
<path d="M181.254 127.039H153.379C152.78 127.039 152.295 126.552 152.295 125.951V125.534C152.295 124.933 152.78 124.446 153.379 124.446H181.254C181.853 124.446 182.338 124.933 182.338 125.534V125.951C182.338 126.552 181.853 127.039 181.254 127.039Z" fill="white"/>
<path d="M173.806 132.508H153.373C152.777 132.508 152.295 132.023 152.295 131.425V130.996C152.295 130.399 152.777 129.914 153.373 129.914H173.806C174.401 129.914 174.884 130.399 174.884 130.996V131.425C174.884 132.023 174.401 132.508 173.806 132.508Z" fill="white"/>
<path d="M186.561 137.977H153.383C152.782 137.977 152.295 137.487 152.295 136.884V136.475C152.295 135.872 152.782 135.383 153.383 135.383H186.561C187.162 135.383 187.649 135.872 187.649 136.475V136.884C187.649 137.487 187.162 137.977 186.561 137.977Z" fill="white"/>
<path d="M178.193 143.445H153.376C152.779 143.445 152.295 142.959 152.295 142.359V141.938C152.295 141.338 152.779 140.852 153.376 140.852H178.193C178.791 140.852 179.275 141.338 179.275 141.938V142.359C179.275 142.959 178.791 143.445 178.193 143.445Z" fill="white"/>
<path d="M189.493 163.273H153.407C152.792 163.273 152.295 162.773 152.295 162.157V159.203C152.295 158.586 152.792 158.086 153.407 158.086H189.493C190.107 158.086 190.605 158.586 190.605 159.203V162.157C190.605 162.773 190.107 163.273 189.493 163.273Z" fill="white"/>
<path d="M181.254 171.617H153.379C152.78 171.617 152.295 171.13 152.295 170.529V170.112C152.295 169.511 152.78 169.024 153.379 169.024H181.254C181.853 169.024 182.338 169.511 182.338 170.112V170.529C182.338 171.13 181.853 171.617 181.254 171.617Z" fill="white"/>
<path d="M173.295 177.086H153.372C152.777 177.086 152.295 176.602 152.295 176.005V175.574C152.295 174.977 152.777 174.493 153.372 174.493H173.295C173.891 174.493 174.373 174.977 174.373 175.574V176.005C174.373 176.602 173.891 177.086 173.295 177.086Z" fill="white"/>
<path d="M186.561 182.555H153.383C152.782 182.555 152.295 182.066 152.295 181.462V181.054C152.295 180.45 152.782 179.961 153.383 179.961H186.561C187.162 179.961 187.649 180.45 187.649 181.054V181.462C187.649 182.066 187.162 182.555 186.561 182.555Z" fill="white"/>
<path d="M181.254 188.023H153.379C152.78 188.023 152.295 187.536 152.295 186.935V186.518C152.295 185.918 152.78 185.43 153.379 185.43H181.254C181.853 185.43 182.338 185.918 182.338 186.518V186.935C182.338 187.536 181.853 188.023 181.254 188.023Z" fill="white"/>
<path d="M175.438 193.492H153.374C152.778 193.492 152.295 193.007 152.295 192.408V191.983C152.295 191.384 152.778 190.899 153.374 190.899H175.438C176.034 190.899 176.518 191.384 176.518 191.983V192.408C176.518 193.007 176.034 193.492 175.438 193.492Z" fill="white"/>
<path d="M143.069 96.4609H107.241C106.556 96.4609 106 95.9032 106 95.215V59.2437C106 58.5559 106.556 57.9977 107.241 57.9977H143.069C143.754 57.9977 144.31 58.5559 144.31 59.2437V95.215C144.31 95.9032 143.754 96.4609 143.069 96.4609Z" fill="white"/>
<path d="M143.069 146.508H107.241C106.556 146.508 106 145.95 106 145.261V109.291C106 108.602 106.556 108.045 107.241 108.045H143.069C143.754 108.045 144.31 108.602 144.31 109.291V145.261C144.31 145.95 143.754 146.508 143.069 146.508Z" fill="white"/>
<path d="M120.164 125.836C120.164 125.836 124.62 125.798 130.002 125.798" stroke="white" stroke-width="1.33333" stroke-miterlimit="10" stroke-linecap="round" stroke-linejoin="round"/>
<path d="M143.069 196.547H107.241C106.556 196.547 106 195.989 106 195.302V159.33C106 158.642 106.556 158.084 107.241 158.084H143.069C143.754 158.084 144.31 158.642 144.31 159.33V195.301C144.31 195.989 143.754 196.547 143.069 196.547Z" fill="white"/>
<path d="M220.278 129.207C213.58 133.841 205.128 137.011 196.771 138.062C191.214 138.746 186.113 138.409 180.633 137.116C170.147 141.305 197.027 145.308 202.98 144.734C210.912 143.969 220.839 141.465 224.532 139.321C234.66 133.443 224.246 125.905 220.278 129.207Z" fill="#FF9985"/>
<path d="M171.719 135.767L171.72 135.765C171.995 135.357 172.444 135.102 172.933 135.075L176.049 135.296C176.602 135.265 177.155 135.349 177.675 135.541L180.715 136.506C181.334 136.704 181.902 137.039 182.373 137.487L179.844 140.566L177.554 140.648C174.971 140.31 171.933 137.784 171.933 137.784C171.383 137.253 171.293 136.402 171.719 135.767Z" fill="#FF9985"/>
<path d="M178.45 136.769C178.136 136.612 177.859 136.435 177.635 136.247L176.861 135.597C176.662 135.43 176.589 135.256 176.662 135.126L176.663 135.125C176.777 134.923 177.216 134.873 177.701 135.008L178.989 135.365C179.69 135.559 180.342 135.878 180.796 136.249L182.432 137.587L180.761 137.984L178.45 136.769Z" fill="#FF9985"/>
<path d="M220.277 129.211C215.304 132.651 209.256 134.812 203.106 136.37C200.972 136.911 204.327 146.539 204.791 146.484C212.46 145.583 221.049 141.348 224.532 139.326C234.659 133.447 224.246 125.91 220.277 129.211Z" fill="#F82E00"/>
<path d="M215.024 229.036C215.261 232.619 214.866 243.81 218.831 242.222C220.02 241.745 220.841 240.622 221.041 239.352C221.384 237.176 221.662 234.978 221.896 232.768C223.085 221.533 214.537 217.521 215.024 229.036Z" fill="#FF9985"/>
<path d="M231.577 229.977C233.192 233.458 234.889 236.909 236.601 240.337C243.419 243.921 240.25 235.452 238.634 228.46C236.495 218.087 227.179 220.496 231.577 229.977Z" fill="#FF9985"/>
<path d="M215.618 162.963C210.766 165.41 213.446 194.798 213.571 196.291C214.036 201.882 215.024 232.485 215.105 233.637C215.216 235.228 221.716 235.397 221.91 233.722C223.274 221.994 223.065 210.468 224.966 198.983C225.056 198.438 226.588 183.49 225.447 171.532C224.83 165.069 221.411 161.709 215.618 162.963Z" fill="#006476"/>
<path d="M223.426 165.828C219.384 168.275 220.589 195.798 221.846 202.191C222.921 207.653 228.4 223.5 233.432 233.9C233.942 234.954 239.852 233.346 239.552 232.151C239.242 230.923 238.913 229.672 238.634 228.463C236.494 218.09 233.796 210.83 233.189 200.989C233.152 200.383 237.509 174.014 235.603 169.234C232.973 162.64 225.172 165.533 223.426 165.828Z" fill="#007490"/>
<path d="M230.269 241.804C244.457 243.311 240.538 234.858 236.349 235.592C234.54 236.408 224.571 239.609 230.269 241.804Z" fill="#FF9985"/>
<path d="M210.558 241.648C224.447 244.926 221.613 236.046 217.364 236.248C215.468 236.831 205.178 238.755 210.558 241.648Z" fill="#FF9985"/>
<path d="M214.239 235.943C214.786 235.489 215.278 235.746 217.08 237.113C219.018 238.584 221.639 236.585 221.645 237.266C221.649 237.738 221.813 242.488 221.553 242.491L207.834 242.523C207.574 242.525 207.36 242.145 207.356 241.673C207.346 240.512 207.759 239.485 208.369 239.151L214.239 235.943Z" fill="#06115B"/>
<path d="M233.393 235.94C233.94 235.486 234.431 235.742 236.234 237.109C238.173 238.579 240.793 236.578 240.799 237.259C240.803 237.731 240.97 242.482 240.71 242.484L226.99 242.523C226.731 242.525 226.516 242.145 226.512 241.673C226.502 240.512 226.914 239.485 227.525 239.151L233.393 235.94Z" fill="#06115B"/>
<path d="M235.321 140.643C235.188 141.655 235.067 142.684 234.991 143.731C234.835 145.818 234.761 147.932 234.845 150.035C234.927 152.137 235.073 154.228 235.389 156.284C235.511 157.316 236.941 167.808 236.941 167.808C238.409 174.614 213.606 176.065 212.138 169.258C212.028 168.746 212.975 162.705 213.724 156.388C214.103 153.443 213.302 149.377 212.73 146.218C212.264 143.648 212.348 141.007 212.99 138.475C213.572 136.182 214.38 133.651 215.085 132.541C215.575 131.768 216.007 130.964 216.395 130.135C218.646 125.328 224.2 122.912 229.304 124.702C234.758 126.615 235.792 134.713 235.321 140.643Z" fill="#FF4E36"/>
<path d="M223.837 127.693L227.151 127.221C229.485 126.888 230.925 124.485 230.123 122.259L227.933 116.175L221.496 117.092L221.824 126.004C221.864 127.055 222.8 127.841 223.837 127.693Z" fill="#FF9985"/>
<path d="M213.132 113.491C213.894 119.253 215.425 123.693 220.418 123.028C225.411 122.362 231.975 116.843 231.214 111.081C230.452 105.32 224.347 101.381 219.354 102.046C214.361 102.712 212.37 107.73 213.132 113.491Z" fill="#FF9985"/>
<path d="M226.851 161.285L220.661 163.29C220.216 163.435 219.863 163.78 219.709 164.225L218.214 168.538C217.988 169.191 218.235 169.915 218.814 170.291C219.42 170.684 220.22 170.587 220.715 170.057L224.039 166.499L225.332 166.638C226.656 166.78 227.951 166.188 228.714 165.092L226.851 161.285Z" fill="#FF9985"/>
<path d="M226.941 137.18C230.872 142.405 237.667 149.752 237.932 154.558C234.495 158.711 228.587 159.786 224.087 162.818C222.273 166.743 227.125 165.938 229.431 165.092C255.734 159.803 244.281 146.052 235.521 130.193C230.393 124.153 222.434 131.664 226.941 137.18Z" fill="#FF9985"/>
<path d="M226.761 136.948C230.019 141.279 234.032 147.706 235.876 152.297C236.257 153.246 246.659 151.186 246.327 149.918C244.83 144.187 240.218 136.481 235.523 130.194C230.781 123.844 222.254 131.431 226.761 136.948Z" fill="#F82E00"/>
<path d="M213.859 106.349C213.859 106.349 217.122 105.746 219.505 109.256C222.204 113.233 225.177 113.492 225.268 116.214C225.33 118.088 225.096 125.645 230.105 128.399C234.313 130.714 234.878 137.857 241.615 137.983C251.005 138.158 252.958 125.263 244.576 120.782C237.953 117.239 237.021 116.472 235.341 109.882C233.541 102.821 229.859 98.4692 223.486 99.1072C217.765 99.68 212.839 101.92 213.859 106.349Z" fill="#06115B"/>
<path d="M221.648 113.941C221.833 115.34 222.205 116.419 223.418 116.257C224.631 116.096 226.225 114.755 226.04 113.356C225.855 111.956 224.372 110.999 223.159 111.161C221.947 111.322 221.463 112.541 221.648 113.941Z" fill="#FF9985"/>
<path d="M60.7545 186.374C60.7545 186.374 65.561 173.607 68.3615 171.16C71.273 168.617 75.107 165.515 75.7895 165.115C81.414 161.823 81.244 159.797 78.0885 160.57C73.4585 161.704 70.822 163.981 73.1085 159.476C75.3945 154.97 84.373 153.921 85.057 149.546C85.741 145.17 75.157 153.759 76.4435 149.79C77.7305 145.82 90.93 140.203 90.6145 136.363C90.299 132.524 80.1265 143.807 81.1115 139.635C82.097 135.462 94.802 121.681 94.2545 119.471C93.8395 117.793 88.9885 121.136 80.261 136.6C75.637 144.793 83.37 121.469 82.1165 120.457C79.961 118.718 74.4305 147.225 73.431 147.76C72.1665 148.438 74.851 129.966 71.9515 134.088C68.7875 138.588 70.855 154.722 69.059 156.916C65.869 160.813 66.8485 150.097 64.2295 151.235C62.7925 151.859 64.1095 156.234 64.6965 162.24C64.8925 164.241 64.953 166.157 64.4235 170.555C63.922 174.723 56.2695 193.43 56.2695 193.43L57.88 194.109L60.7545 186.374Z" fill="#006476"/>
<path d="M63.0202 185.225C63.0202 185.225 64.2092 172.192 66.3517 168.898C68.5782 165.474 71.5822 161.178 72.1607 160.545C76.9327 155.325 76.1717 153.652 73.1827 155.655C68.7977 158.593 66.7737 161.672 67.7942 156.823C68.8152 151.974 77.6527 147.265 77.0797 143.207C76.5067 139.149 68.2217 151.031 68.3797 147.067C68.5382 143.103 80.3487 132.67 78.9132 129.497C77.4782 126.324 70.3937 140.353 70.1862 136.342C69.9792 132.331 78.9167 115.078 77.7182 113.406C76.8082 112.137 72.8392 117.072 68.4397 134.089C66.1087 143.106 67.2142 119.739 65.6447 119.4C62.9447 118.815 65.5852 145.711 64.7232 146.596C63.6322 147.715 61.0052 130.668 59.2497 135.448C57.3332 140.664 64.1207 153.684 62.9282 156.334C60.8107 161.042 58.6982 151.398 56.3617 153.487C55.0797 154.635 57.6902 157.844 60.0312 162.768C60.8112 164.409 61.4287 166.033 62.1657 170.046C62.8642 173.848 60.5007 193.203 60.5007 193.203L62.3377 193.106L63.0202 185.225Z" fill="#006476"/>
<path d="M57.5424 202.083C57.5424 202.083 62.3844 188.943 65.2254 185.672C68.1789 182.272 72.0689 178.012 72.7614 177.388C78.4734 172.243 78.2924 170.531 75.0839 172.473C70.3754 175.324 67.7014 178.38 70.0109 173.507C72.3199 168.634 81.4539 164.117 82.1329 159.999C82.8119 155.882 72.0734 167.664 73.3669 163.662C74.6609 159.659 88.0734 149.44 87.7374 146.192C87.4009 142.945 77.0914 156.931 78.0779 152.871C79.0644 148.811 91.9409 131.618 91.3754 129.894C90.9459 128.587 86.0219 133.465 77.2004 150.545C72.5264 159.595 80.3044 136.008 79.0249 135.62C76.8234 134.956 71.3074 162.214 70.2924 163.085C69.0084 164.187 71.6669 146.884 68.7324 151.666C65.5299 156.885 67.6984 170.233 65.8789 172.879C62.6474 177.579 63.6014 167.773 60.9404 169.821C59.4804 170.945 60.8384 174.261 61.4594 179.303C61.6669 180.983 61.7359 182.641 61.2144 186.717C60.7204 190.579 53.0059 210.078 53.0059 210.078L54.6474 210.031L57.5424 202.083Z" fill="#0BA8A0"/>
<path d="M61.5609 191.426C61.5609 191.426 57.4994 178.993 54.6749 176.252C51.7384 173.404 47.8481 169.876 47.1422 169.386C41.3203 165.345 41.6908 163.549 45.0563 164.846C49.9934 166.75 52.6549 169.307 50.5793 164.807C48.5035 160.307 38.8238 157.653 38.4809 153.574C38.1379 149.496 48.8734 159.258 47.8371 155.432C46.8006 151.605 32.9438 144.027 33.6401 140.622C34.3361 137.218 44.3766 149.333 43.6869 145.381C42.9973 141.429 30.4289 126.578 31.2279 124.688C31.8342 123.253 36.8088 127.192 44.8918 142.804C49.1742 151.077 42.8963 128.561 44.3539 127.886C46.8611 126.726 50.2649 153.5 51.3039 154.174C52.6184 155.026 51.3924 137.848 54.1704 142.119C57.2024 146.78 53.4694 160.946 55.2239 163.267C58.3394 167.389 58.2574 157.533 61.0044 159.058C62.5119 159.895 60.6759 163.592 59.4849 168.9C59.0879 170.669 58.8459 172.385 59.0189 176.455C59.1819 180.31 65.7964 198.645 65.7964 198.645L63.9804 198.953L61.5609 191.426Z" fill="#006476"/>
<path d="M61.8128 197.135C61.8128 197.135 60.7938 183.947 62.0403 180.45C63.3358 176.815 65.1338 172.236 65.5098 171.549C68.6098 165.886 67.7328 164.274 65.5973 166.55C62.4638 169.889 61.2813 173.159 61.3743 168.201C61.4673 163.242 67.9673 157.732 66.8793 153.709C65.7908 149.686 60.8388 162.348 60.3623 158.354C59.8863 154.361 67.9403 142.843 66.2828 139.784C64.6258 136.726 60.9818 151.437 60.1998 147.428C59.4173 143.42 64.0833 125.308 62.8483 123.736C61.9113 122.543 59.4228 127.848 58.4288 145.321C57.9018 154.578 55.2358 131.025 53.9018 130.822C51.6068 130.474 57.8728 157.24 57.3033 158.205C56.5833 159.426 51.8333 142.545 51.1293 147.499C50.3607 152.904 57.8938 165.374 57.3248 168.141C56.3143 173.054 53.1153 163.559 51.5258 165.864C50.6538 167.129 53.2768 170.12 55.9408 174.856C56.8288 176.434 57.5813 178.01 58.7963 181.973C59.9473 185.727 60.9738 205.367 60.9738 205.367L62.4593 205.107L61.8128 197.135Z" fill="#0BA8A0"/>
<path d="M46.3262 183.226H79.1387L74.1387 217.906H51.3262L46.3262 183.226Z" fill="#EA965C"/>
<path d="M46.3262 193.25H79.1387V183.229H46.3262V193.25Z" fill="#F7AA74"/>
<path d="M126.897 111.826C127.154 114.001 127.235 115.991 127.293 117.981C127.345 119.961 127.322 121.904 127.282 123.852C127.269 124.095 127.27 124.339 127.267 124.583L127.247 125.313C127.225 125.801 127.201 126.289 127.189 126.778C127.172 127.267 127.143 127.757 127.105 128.25C127.08 128.741 127.057 129.234 127.014 129.731C126.907 130.725 126.859 131.722 126.707 132.744C126.564 133.765 126.45 134.794 126.154 135.875C125.844 135.418 125.584 134.946 125.339 134.468C125.097 133.99 124.857 133.507 124.674 133.013C124.302 132.025 123.961 131.019 123.739 129.994C123.622 129.483 123.513 128.968 123.424 128.451C123.35 127.933 123.283 127.413 123.229 126.892C123.201 126.631 123.175 126.37 123.158 126.109L123.125 125.323C123.113 124.8 123.092 124.277 123.111 123.753C123.162 121.657 123.465 119.564 124.049 117.537C124.196 117.03 124.359 116.528 124.55 116.032C124.727 115.535 124.947 115.047 125.169 114.564C125.404 114.084 125.648 113.609 125.936 113.149C126.217 112.69 126.525 112.239 126.897 111.826Z" fill="#007490"/>
<path d="M130.46 116.518C130.392 118.928 130.045 121.161 129.651 123.368C129.255 125.57 128.747 127.712 128.225 129.839C127.709 131.967 127.13 134.066 126.536 136.179C125.94 138.299 125.358 140.401 124.612 142.703C124.363 142.156 124.164 141.592 123.981 141.017C123.936 140.874 123.886 140.73 123.849 140.585L123.753 140.151C123.69 139.862 123.638 139.57 123.581 139.277L123.435 138.393C123.4 138.099 123.384 137.807 123.358 137.512C123.332 137.217 123.32 136.923 123.304 136.627C123.291 136.332 123.266 136.034 123.279 135.743C123.287 135.157 123.31 134.571 123.341 133.984C123.374 133.398 123.453 132.822 123.524 132.243C123.559 131.953 123.603 131.665 123.644 131.375L123.805 130.521C123.922 129.953 124.031 129.381 124.178 128.821C124.74 126.575 125.531 124.401 126.55 122.326C126.805 121.808 127.068 121.293 127.36 120.791C127.642 120.286 127.946 119.79 128.266 119.302C128.911 118.33 129.604 117.379 130.46 116.518Z" fill="#006476"/>
<path d="M134.181 109.935C133.925 112.334 133.404 114.531 132.838 116.7C132.271 118.865 131.597 120.96 130.91 123.039C130.229 125.119 129.487 127.166 128.73 129.226C127.97 131.293 127.225 133.342 126.301 135.578C126.095 135.013 125.941 134.435 125.804 133.848C125.77 133.702 125.732 133.554 125.706 133.406L125.644 132.967C125.604 132.673 125.575 132.378 125.541 132.081L125.465 131.188C125.453 130.893 125.46 130.6 125.458 130.304C125.454 130.008 125.466 129.714 125.473 129.418C125.483 129.123 125.481 128.823 125.517 128.534C125.571 127.951 125.64 127.368 125.717 126.786C125.795 126.203 125.919 125.637 126.036 125.064C126.093 124.779 126.16 124.494 126.222 124.209L126.45 123.369C126.611 122.813 126.765 122.251 126.955 121.705C127.691 119.51 128.65 117.405 129.828 115.417C130.123 114.921 130.426 114.428 130.756 113.951C131.077 113.47 131.419 112.999 131.776 112.538C132.495 111.62 133.26 110.726 134.181 109.935Z" fill="#007490"/>
<path d="M137.529 121.128C136.284 122.821 135.141 124.293 134.105 125.785C133.072 127.267 132.145 128.716 131.373 130.218C130.991 130.97 130.639 131.731 130.316 132.513C130.01 133.3 129.723 134.105 129.467 134.946C128.951 136.634 128.621 138.442 128.167 140.516C127.534 139.667 127.063 138.718 126.746 137.713C126.403 136.709 126.261 135.648 126.203 134.57C126.169 133.493 126.292 132.405 126.531 131.341C126.787 130.281 127.174 129.253 127.67 128.287C128.67 126.358 130.109 124.705 131.793 123.458C132.641 122.839 133.544 122.31 134.501 121.903C134.982 121.704 135.469 121.525 135.975 121.392C136.479 121.258 136.993 121.15 137.529 121.128Z" fill="#006476"/>
<path d="M126.074 133.93C124.897 131.967 123.911 130.227 122.74 128.628C122.465 128.222 122.159 127.835 121.878 127.442C121.573 127.06 121.289 126.671 120.978 126.299C120.681 125.919 120.36 125.554 120.056 125.18C119.732 124.819 119.426 124.446 119.093 124.09C117.798 122.644 116.41 121.251 114.97 119.822C113.528 118.383 112.032 116.96 110.477 115.303C111.054 115.296 111.616 115.371 112.169 115.47C112.724 115.567 113.264 115.708 113.801 115.866C114.869 116.191 115.897 116.63 116.889 117.145C118.863 118.189 120.673 119.586 122.192 121.285C122.576 121.705 122.929 122.157 123.279 122.609C123.609 123.078 123.943 123.543 124.23 124.043C124.536 124.527 124.786 125.051 125.042 125.563C125.27 126.095 125.504 126.618 125.674 127.171C125.863 127.713 125.999 128.277 126.123 128.834C126.178 129.116 126.225 129.4 126.264 129.683C126.305 129.966 126.342 130.249 126.354 130.536C126.366 130.823 126.386 131.106 126.39 131.39C126.379 131.678 126.372 131.961 126.35 132.245C126.338 132.387 126.334 132.527 126.316 132.668L126.25 133.092C126.199 133.374 126.147 133.653 126.074 133.93Z" fill="#007490"/>
<path d="M141.69 119.57C140.111 120.953 138.679 122.144 137.347 123.376C136.02 124.601 134.804 125.815 133.728 127.114C133.193 127.766 132.687 128.433 132.203 129.127C131.736 129.83 131.283 130.553 130.852 131.32C129.986 132.855 129.276 134.55 128.388 136.477C127.952 135.511 127.696 134.483 127.601 133.433C127.482 132.378 127.571 131.311 127.745 130.246C127.944 129.187 128.297 128.151 128.759 127.163C129.236 126.184 129.835 125.263 130.526 124.428C131.917 122.76 133.677 121.457 135.589 120.604C136.55 120.183 137.545 119.861 138.567 119.672C139.079 119.58 139.593 119.511 140.116 119.491C140.636 119.469 141.162 119.475 141.69 119.57Z" fill="#007490"/>
<path d="M113.16 123.398C113.577 123.166 114.032 123.034 114.489 122.944C114.949 122.85 115.415 122.817 115.884 122.816C116.82 122.821 117.762 122.985 118.657 123.292C120.454 123.9 122.063 125.046 123.291 126.457C124.538 127.863 125.407 129.531 125.912 131.262C126.399 133.003 126.572 134.805 126.17 136.641C125.827 136.306 125.535 135.966 125.261 135.627C124.971 135.294 124.705 134.961 124.45 134.63C124.184 134.305 123.934 133.979 123.692 133.657C123.43 133.345 123.206 133.02 122.961 132.712C122.004 131.475 121.113 130.3 120.161 129.226C119.219 128.139 118.23 127.149 117.114 126.191C116.835 125.95 116.543 125.721 116.247 125.477C115.945 125.25 115.638 125.006 115.312 124.782C114.66 124.314 113.971 123.863 113.16 123.398Z" fill="#006476"/>
<path d="M108.621 123.788C108.95 123.441 109.346 123.18 109.755 122.957C110.166 122.73 110.601 122.559 111.048 122.417C111.944 122.143 112.892 122.018 113.837 122.043C115.733 122.086 117.609 122.699 119.2 123.678C120.806 124.648 122.131 125.98 123.127 127.481C124.108 128.997 124.808 130.667 124.969 132.539C124.542 132.322 124.163 132.085 123.801 131.844C123.425 131.612 123.072 131.374 122.731 131.134C122.38 130.904 122.044 130.667 121.718 130.432C121.375 130.213 121.065 129.969 120.741 129.749C119.459 128.854 118.261 127.999 117.033 127.258C115.811 126.502 114.574 125.853 113.224 125.272C112.886 125.125 112.539 124.994 112.185 124.849C111.829 124.723 111.463 124.582 111.085 124.465C110.325 124.214 109.533 123.99 108.621 123.788Z" fill="#007490"/>
<path d="M130.01 144.609H120.782L117.916 129.224H132.876L130.01 144.609Z" fill="#EA965C"/>
<path d="M133.518 165.071C133.518 165.071 122.104 169.623 126.381 181.641C126.381 181.641 139.622 180.398 133.518 165.071Z" fill="#007490"/>
<path d="M125.832 184.141C125.832 184.141 114.326 172.112 123.856 161.101C123.856 161.101 141.3 171.532 125.832 184.141Z" fill="#006476"/>
<path d="M125.774 182.594C125.774 182.594 113.496 171.361 122.274 159.738C122.274 159.738 140.372 168.98 125.774 182.594Z" fill="#007490"/>
<path d="M126.451 182.82C126.451 182.82 129.81 167.617 117.454 167.151C117.454 167.151 113.059 182.074 126.451 182.82Z" fill="#006476"/>
<path d="M124.871 182.375C124.871 182.375 128.229 167.172 115.874 166.705C115.874 166.705 111.479 181.629 124.871 182.375Z" fill="#007490"/>
<path d="M129.485 194.891H120.257L117.391 179.505H132.351L129.485 194.891Z" fill="#EA965C"/>
<path d="M125.431 67.6314C123.833 69.4301 122.136 71.3954 121.92 73.796C121.68 76.4631 123.325 78.8938 124.001 81.4841C124.402 83.0222 124.459 84.6502 124.165 86.2124C124.035 86.9057 123.836 87.597 123.866 88.3018C123.896 89.0066 124.213 89.7536 124.846 90.0588C125.593 90.4187 126.532 90.0256 127.033 89.3635C127.534 88.7009 127.689 87.8419 127.767 87.0141C128.028 84.2325 127.58 81.3867 126.477 78.8215C125.655 76.9094 124.446 74.8989 125.004 72.8934C125.502 71.1043 127.241 69.9999 128.348 68.5114C129.349 67.1646 129.687 65.5446 129.694 63.8925C129.7 62.3935 129.824 60.3519 128.824 59.1451C128.769 59.0788 128.701 59.0091 128.615 59.0066C128.402 58.999 128.401 59.3243 128.469 59.5271C129.561 62.755 127.436 65.3749 125.431 67.6314Z" fill="#006476"/>
<path d="M125.014 83.1787C124.997 81.2385 124.443 79.2717 123.26 77.7371C121.886 75.9555 119.792 74.8792 118.256 73.2351C116.16 70.9897 115.264 67.8291 115.158 64.7533C113.551 68.6132 114.676 73.449 117.82 76.1949C119.037 77.2582 120.514 78.0302 121.562 79.2626C122.714 80.618 123.238 82.4257 123.325 84.2058C123.413 86.014 122.98 87.7153 122.761 89.4854C124.477 90.1104 125.022 84.1596 125.014 83.1787Z" fill="#006476"/>
<path d="M126.95 87.7501C127.696 86.0207 128.928 84.5353 130.051 83.0428C130.569 82.3536 130.688 81.4545 131.002 80.6443C131.331 79.7924 131.729 78.9676 132.191 78.18C132.612 77.4616 133.087 76.7749 133.609 76.1268C134.106 75.5108 134.73 75.1067 135.315 74.5821C136.353 73.6519 137.344 72.5681 137.693 71.2167C137.8 70.8026 137.762 70.4241 137.665 70.0245C137.619 69.8362 137.54 69.3814 137.433 69.2183C137.36 69.1078 137.189 69.0511 137.093 69.143C136.686 70.1962 136.292 71.2273 135.548 72.0797C134.865 72.8618 133.978 73.426 133.175 74.0701C132.435 74.6629 131.596 75.0836 130.909 75.7709C130.161 76.5198 129.547 77.3999 129.053 78.3356C128.392 79.5891 127.935 80.9375 127.539 82.2954C127.375 82.8586 127.291 83.4429 126.933 83.9113C126.571 84.3857 126.234 84.8812 125.875 85.3621C125.444 85.9409 124.887 86.4323 124.469 87.0388C123.963 87.7712 122.95 90.1617 124.355 90.5643C125.743 90.9629 126.58 88.61 126.95 87.7501Z" fill="#006476"/>
<path d="M128.275 85.2132C127.715 83.2735 126.365 81.6822 125.091 80.1189C123.817 78.5552 122.546 76.8685 122.202 74.8791C121.918 73.239 122.295 71.5638 122.689 69.9469C123.083 68.3305 123.499 66.6719 123.291 65.0203C123.083 63.3692 122.097 61.7016 120.514 61.2071C122.051 63.1097 122.592 65.7813 121.915 68.1352C121.372 70.0227 120.123 71.6472 119.604 73.5407C118.939 75.9664 119.614 78.7178 121.326 80.5552C122.253 81.5511 123.493 82.3468 123.959 83.6274C124.281 84.5129 124.174 85.4893 124.091 86.4286C124.007 87.3678 123.963 88.3623 124.39 89.2021C125.142 90.682 126.887 90.8065 127.764 89.4772C128.572 88.2523 128.675 86.5982 128.275 85.2132Z" fill="#007490"/>
<path d="M127.393 77.7716C127.107 79.2761 126.682 80.7394 125.947 82.0758C125.386 83.0963 124.655 84.0195 124.141 85.0647C123.701 85.9582 123.465 86.9241 123.601 87.9191C123.699 88.6314 123.687 89.7599 124.474 90.1053C125.781 90.679 126.049 88.9306 126.116 88.1389C126.173 87.4713 126.233 86.6445 126.468 86.014C126.742 85.275 127.294 84.5777 127.637 83.8604C128.354 82.3619 128.909 80.7831 129.284 79.1642C129.645 77.608 130.12 75.5688 129.749 73.9946C129.418 72.589 129.516 71.1763 130.437 69.9961C130.717 69.6372 131.054 69.3235 131.307 68.9454C131.56 68.5669 131.725 68.0941 131.606 67.6548C130.043 68.0343 128.893 69.4444 128.375 70.973C127.979 72.1397 127.89 73.3806 127.873 74.605C127.859 75.6697 127.593 76.7189 127.393 77.7716Z" fill="#007490"/>
<path d="M123.446 90.4096C124.118 90.5 124.783 90.0808 125.154 89.5105C125.524 88.9402 125.649 88.2445 125.7 87.5658C125.829 85.857 125.55 84.1461 125.498 82.4333C125.447 80.721 125.656 78.9163 126.636 77.5132C127.864 75.7552 130.031 74.9736 131.75 73.696C132.945 72.808 133.856 71.1659 134.268 69.7518C134.723 68.1921 134.294 65.9747 133.495 64.5772C133.26 64.167 132.976 63.77 132.66 63.4191C132.565 63.3142 131.725 62.7976 131.728 62.8101C131.943 63.768 132.644 64.5039 132.885 65.4898C133.116 66.4336 133.21 67.4235 133.173 68.3944C133.119 69.7869 132.199 71.0575 131.186 71.9616C130.202 72.8391 128.994 73.2668 127.905 73.9661C127.052 74.5133 126.279 75.1789 125.555 75.8867C124.884 76.5433 124.499 77.2652 124.1 78.1186C123.339 79.7466 122.927 81.5126 122.521 83.2641C122.193 84.6783 120.952 90.0748 123.446 90.4096Z" fill="#007490"/>
<path d="M130.414 95.4531H121.187L118.32 80.0678H133.281L130.414 95.4531Z" fill="#EA965C"/>
<path d="M22.7168 167.163H25.9656C28.7049 167.163 31.0675 169.174 31.6242 171.979L42.2052 225.301C42.7619 228.106 45.125 230.117 47.864 230.117H94.2673" stroke="#06115B" stroke-width="4.34463" stroke-miterlimit="10" stroke-linecap="round" stroke-linejoin="round"/>
<path d="M33.6035 178.022L103.043 178.026L95.7815 213.778C95.2245 216.583 92.8615 218.594 90.1225 218.594L42.3301 218.592" stroke="#06115B" stroke-width="4.34463" stroke-miterlimit="10" stroke-linecap="round" stroke-linejoin="round"/>
<path d="M58.7768 236.917C58.7768 240.013 56.2763 242.523 53.1918 242.523C50.1078 242.523 47.6074 240.013 47.6074 236.917C47.6074 233.82 50.1078 231.31 53.1918 231.31C56.2763 231.31 58.7768 233.82 58.7768 236.917Z" fill="#06115B"/>
<path d="M89.4913 236.917C89.4913 240.013 86.9908 242.523 83.9068 242.523C80.8228 242.523 78.3223 240.013 78.3223 236.917C78.3223 233.82 80.8228 231.31 83.9068 231.31C86.9908 231.31 89.4913 233.82 89.4913 236.917Z" fill="#06115B"/>
<path d="M36.8496 198.305H98.9227" stroke="#06115B" stroke-width="4.34463" stroke-miterlimit="10" stroke-linecap="round" stroke-linejoin="round"/>
<path d="M67.8867 178.022V218.594" stroke="#06115B" stroke-width="4.34463" stroke-miterlimit="10" stroke-linecap="round" stroke-linejoin="round"/>
<path d="M85.7948 178.025L81.0312 218.594" stroke="#06115B" stroke-width="4.34463" stroke-miterlimit="10" stroke-linecap="round" stroke-linejoin="round"/>
<path d="M49.7422 178.025L54.5057 218.594" stroke="#06115B" stroke-width="4.34463" stroke-miterlimit="10" stroke-linecap="round" stroke-linejoin="round"/>
</g>
</g>
<rect width="240" height="44" transform="translate(19 235)" fill="#378564"/>
<path d="M95.2283 263.18C94.0043 263.18 92.9303 262.91 92.0063 262.37C91.0943 261.83 90.3863 261.074 89.8823 260.102C89.3783 259.118 89.1263 257.966 89.1263 256.646C89.1263 255.314 89.3783 254.162 89.8823 253.19C90.3863 252.218 91.0943 251.468 92.0063 250.94C92.9183 250.4 93.9923 250.13 95.2283 250.13C96.4643 250.13 97.5383 250.4 98.4503 250.94C99.3623 251.468 100.07 252.218 100.574 253.19C101.078 254.162 101.33 255.308 101.33 256.628C101.33 257.96 101.078 259.118 100.574 260.102C100.07 261.074 99.3623 261.83 98.4503 262.37C97.5383 262.91 96.4643 263.18 95.2283 263.18ZM95.2283 261.2C96.3923 261.2 97.2983 260.798 97.9463 259.994C98.5943 259.19 98.9183 258.074 98.9183 256.646C98.9183 255.206 98.5943 254.09 97.9463 253.298C97.3103 252.506 96.4043 252.11 95.2283 252.11C94.0643 252.11 93.1583 252.506 92.5103 253.298C91.8623 254.09 91.5383 255.206 91.5383 256.646C91.5383 258.074 91.8623 259.19 92.5103 259.994C93.1583 260.798 94.0643 261.2 95.2283 261.2ZM103.457 263V254.198H105.653V255.566C105.953 255.062 106.355 254.678 106.859 254.414C107.375 254.15 107.951 254.018 108.587 254.018C110.663 254.018 111.701 255.224 111.701 257.636V263H109.451V257.744C109.451 257.06 109.319 256.562 109.055 256.25C108.803 255.938 108.407 255.782 107.867 255.782C107.207 255.782 106.679 255.992 106.283 256.412C105.899 256.82 105.707 257.366 105.707 258.05V263H103.457ZM117.046 263.18C116.002 263.18 115.228 262.898 114.724 262.334C114.232 261.758 113.986 260.918 113.986 259.814V250.31H116.236V259.706C116.236 260.786 116.692 261.326 117.604 261.326C117.736 261.326 117.868 261.32 118 261.308C118.132 261.296 118.258 261.272 118.378 261.236L118.342 263.018C117.91 263.126 117.478 263.18 117.046 263.18ZM119.59 252.308V250.112H122.11V252.308H119.59ZM119.734 263V254.198H121.984V263H119.734ZM124.322 263V254.198H126.518V255.566C126.818 255.062 127.22 254.678 127.724 254.414C128.24 254.15 128.816 254.018 129.452 254.018C131.528 254.018 132.566 255.224 132.566 257.636V263H130.316V257.744C130.316 257.06 130.184 256.562 129.92 256.25C129.668 255.938 129.272 255.782 128.732 255.782C128.072 255.782 127.544 255.992 127.148 256.412C126.764 256.82 126.572 257.366 126.572 258.05V263H124.322ZM139.19 263.18C138.194 263.18 137.336 262.994 136.616 262.622C135.896 262.25 135.338 261.722 134.942 261.038C134.558 260.354 134.366 259.544 134.366 258.608C134.366 257.696 134.552 256.898 134.924 256.214C135.308 255.53 135.83 254.996 136.49 254.612C137.162 254.216 137.924 254.018 138.776 254.018C140.024 254.018 141.008 254.414 141.728 255.206C142.46 255.998 142.826 257.078 142.826 258.446V259.112H136.526C136.694 260.684 137.594 261.47 139.226 261.47C139.718 261.47 140.21 261.398 140.702 261.254C141.194 261.098 141.644 260.858 142.052 260.534L142.682 262.046C142.262 262.394 141.734 262.67 141.098 262.874C140.462 263.078 139.826 263.18 139.19 263.18ZM138.866 255.548C138.206 255.548 137.672 255.752 137.264 256.16C136.856 256.568 136.61 257.12 136.526 257.816H140.954C140.906 257.084 140.702 256.526 140.342 256.142C139.994 255.746 139.502 255.548 138.866 255.548ZM152.681 263.18C151.937 263.18 151.241 263.09 150.593 262.91C149.945 262.73 149.405 262.472 148.973 262.136L149.549 260.66C149.993 260.96 150.491 261.194 151.043 261.362C151.595 261.518 152.147 261.596 152.699 261.596C153.275 261.596 153.701 261.5 153.977 261.308C154.265 261.104 154.409 260.84 154.409 260.516C154.409 260.012 154.037 259.688 153.293 259.544L151.493 259.202C149.969 258.914 149.207 258.122 149.207 256.826C149.207 256.25 149.363 255.752 149.675 255.332C149.999 254.912 150.443 254.588 151.007 254.36C151.571 254.132 152.219 254.018 152.951 254.018C153.575 254.018 154.175 254.108 154.751 254.288C155.327 254.456 155.819 254.714 156.227 255.062L155.615 256.538C155.267 256.25 154.847 256.022 154.355 255.854C153.875 255.686 153.413 255.602 152.969 255.602C152.381 255.602 151.943 255.704 151.655 255.908C151.379 256.112 151.241 256.382 151.241 256.718C151.241 257.246 151.583 257.57 152.267 257.69L154.067 258.032C154.847 258.176 155.435 258.44 155.831 258.824C156.239 259.208 156.443 259.724 156.443 260.372C156.443 261.248 156.101 261.938 155.417 262.442C154.733 262.934 153.821 263.18 152.681 263.18ZM162.192 263.18C159.864 263.18 158.7 262.028 158.7 259.724V255.89H157.008V254.198H158.7V251.57H160.95V254.198H163.614V255.89H160.95V259.598C160.95 260.174 161.076 260.606 161.328 260.894C161.58 261.182 161.988 261.326 162.552 261.326C162.72 261.326 162.894 261.308 163.074 261.272C163.254 261.224 163.44 261.176 163.632 261.128L163.974 262.784C163.758 262.904 163.482 263 163.146 263.072C162.822 263.144 162.504 263.18 162.192 263.18ZM168.995 263.18C168.083 263.18 167.291 262.994 166.619 262.622C165.947 262.25 165.425 261.722 165.053 261.038C164.681 260.342 164.495 259.526 164.495 258.59C164.495 257.654 164.681 256.844 165.053 256.16C165.425 255.476 165.947 254.948 166.619 254.576C167.291 254.204 168.083 254.018 168.995 254.018C169.907 254.018 170.699 254.204 171.371 254.576C172.043 254.948 172.565 255.476 172.937 256.16C173.309 256.844 173.495 257.654 173.495 258.59C173.495 259.526 173.309 260.342 172.937 261.038C172.565 261.722 172.043 262.25 171.371 262.622C170.699 262.994 169.907 263.18 168.995 263.18ZM168.995 261.47C169.667 261.47 170.207 261.23 170.615 260.75C171.023 260.258 171.227 259.538 171.227 258.59C171.227 257.63 171.023 256.916 170.615 256.448C170.207 255.968 169.667 255.728 168.995 255.728C168.323 255.728 167.783 255.968 167.375 256.448C166.967 256.916 166.763 257.63 166.763 258.59C166.763 259.538 166.967 260.258 167.375 260.75C167.783 261.23 168.323 261.47 168.995 261.47ZM175.352 263V254.198H177.548V255.746C177.98 254.702 178.904 254.126 180.32 254.018L181.004 253.964L181.148 255.872L179.852 255.998C178.376 256.142 177.638 256.898 177.638 258.266V263H175.352ZM186.598 263.18C185.602 263.18 184.744 262.994 184.024 262.622C183.304 262.25 182.746 261.722 182.35 261.038C181.966 260.354 181.774 259.544 181.774 258.608C181.774 257.696 181.96 256.898 182.332 256.214C182.716 255.53 183.238 254.996 183.898 254.612C184.57 254.216 185.332 254.018 186.184 254.018C187.432 254.018 188.416 254.414 189.136 255.206C189.868 255.998 190.234 257.078 190.234 258.446V259.112H183.934C184.102 260.684 185.002 261.47 186.634 261.47C187.126 261.47 187.618 261.398 188.11 261.254C188.602 261.098 189.052 260.858 189.46 260.534L190.09 262.046C189.67 262.394 189.142 262.67 188.506 262.874C187.87 263.078 187.234 263.18 186.598 263.18ZM186.274 255.548C185.614 255.548 185.08 255.752 184.672 256.16C184.264 256.568 184.018 257.12 183.934 257.816H188.362C188.314 257.084 188.11 256.526 187.75 256.142C187.402 255.746 186.91 255.548 186.274 255.548Z" fill="white"/>
</g>
</g>
<defs>
<filter id="filter0_d_12244_6570" x="0" y="0" width="280" height="300" filterUnits="userSpaceOnUse" color-interpolation-filters="sRGB">
<feFlood flood-opacity="0" result="BackgroundImageFix"/>
<feColorMatrix in="SourceAlpha" type="matrix" values="0 0 0 0 0 0 0 0 0 0 0 0 0 0 0 0 0 0 127 0" result="hardAlpha"/>
<feOffset dx="1" dy="1"/>
<feGaussianBlur stdDeviation="10"/>
<feComposite in2="hardAlpha" operator="out"/>
<feColorMatrix type="matrix" values="0 0 0 0 0 0 0 0 0 0 0 0 0 0 0 0 0 0 0.25 0"/>
<feBlend mode="normal" in2="BackgroundImageFix" result="effect1_dropShadow_12244_6570"/>
<feBlend mode="normal" in="SourceGraphic" in2="effect1_dropShadow_12244_6570" result="shape"/>
</filter>
<clipPath id="clip0_12244_6570">
<rect x="19" y="19" width="240" height="260" rx="22" fill="white"/>
</clipPath>
<clipPath id="clip1_12244_6570">
<rect width="264" height="220" fill="white" transform="translate(7 35)"/>
</clipPath>
<clipPath id="clip2_12244_6570">
<rect width="300" height="251" fill="white" transform="translate(1 9)"/>
</clipPath>
</defs>
</svg>
