<svg width="22" height="22" viewBox="0 0 22 22" fill="none" xmlns="http://www.w3.org/2000/svg">
<path d="M18.5848 4.57503C19.8356 2.8187 20.3306 1.07656 20.3511 1.0033C20.4082 0.798794 20.3714 0.579513 20.2507 0.404879C20.1299 0.230173 19.9378 0.118304 19.7263 0.0993595C18.9868 0.0334314 18.2806 0 17.6274 0C14.3373 0 12.1145 0.840026 11.0208 2.49678C9.87916 4.22601 10.3417 6.2838 10.6989 7.31694C10.6983 7.31791 10.6978 7.31885 10.6972 7.31975C10.4775 7.14083 10.2463 7.00164 10.0299 6.89916C9.73936 5.32519 8.71334 3.72742 6.5783 3.72742C5.28864 3.72742 3.70223 4.31725 1.86293 5.48055C1.73298 5.56273 1.64627 5.6985 1.62643 5.85092C1.60652 6.00341 1.65548 6.15687 1.75998 6.26968C1.85427 6.37144 4.1037 8.76254 7.05342 8.76254C7.78506 8.76254 8.49791 8.61365 9.18081 8.31898C9.36051 8.38319 9.87532 8.60685 10.0255 9.0988C9.89182 9.68392 9.80773 10.3279 9.77675 11.0109H3.25932C2.8158 11.0109 2.45632 11.3704 2.45632 11.8139V12.6517C2.45632 13.0952 2.81583 13.4547 3.25932 13.4547H3.8063L4.95368 21.313C5.01127 21.7075 5.34953 22 5.74823 22H16.0542C16.4529 22 16.7912 21.7075 16.8488 21.313L17.9959 13.4547H18.543C18.9866 13.4547 19.346 13.0952 19.346 12.6518V11.8138C19.346 11.3703 18.9865 11.0108 18.543 11.0108H11.4106C11.4721 9.80557 11.7203 8.83343 12.0627 8.22297C14.6458 8.20068 16.8999 6.94086 18.5848 4.57503ZM2.99248 6.00528C4.41123 5.18017 5.61548 4.7625 6.5783 4.7625C7.90714 4.7625 8.53091 5.59803 8.8237 6.38629C8.78168 6.36264 8.73833 6.33859 8.69264 6.31407C8.25968 6.07941 7.65529 5.82037 7.02287 5.6788C6.86567 5.64185 6.70624 5.61439 6.54969 5.59163C6.47132 5.58049 6.39288 5.57341 6.31628 5.56438C6.2392 5.55903 6.16307 5.55378 6.08822 5.54846C6.01338 5.54677 5.93987 5.54504 5.8679 5.54342C5.79615 5.54508 5.72602 5.54677 5.65768 5.54842C5.52129 5.55676 5.39353 5.5665 5.27642 5.58347C5.21775 5.58976 5.16207 5.59914 5.10926 5.60928C5.05653 5.61906 5.00656 5.62711 4.95993 5.63682C4.86715 5.65943 4.78652 5.67661 4.72102 5.69494C4.59115 5.73366 4.51691 5.75584 4.51691 5.75584C4.51691 5.75584 4.59377 5.74969 4.72832 5.73887C4.79537 5.73463 4.87722 5.73456 4.97 5.73179C5.01659 5.73204 5.0662 5.73456 5.11818 5.73585C5.17008 5.7369 5.22458 5.7392 5.28134 5.74509C5.39483 5.7525 5.51673 5.76907 5.64438 5.78801C5.70775 5.79995 5.77289 5.81221 5.83947 5.82479C5.90507 5.84032 5.97211 5.85624 6.04031 5.87235C6.10742 5.89169 6.17561 5.91121 6.24478 5.93105C6.31293 5.95424 6.38206 5.97548 6.45061 6.00072C6.58757 6.05151 6.72472 6.10622 6.85822 6.16931C7.39492 6.41562 7.87619 6.7572 8.20573 7.03889C8.37144 7.17897 8.50035 7.30371 8.58587 7.39117C8.59917 7.40473 8.61104 7.41713 8.62225 7.42885C8.11438 7.62695 7.58937 7.72739 7.05371 7.72739C5.27498 7.7275 3.73534 6.63713 2.99248 6.00528ZM12.2134 3.28418C13.026 2.05326 14.8476 1.42914 17.6273 1.42914C17.9608 1.42914 18.3098 1.43859 18.6715 1.45718C18.0156 3.0497 16.2277 6.38626 12.6573 6.75997C12.6637 6.73847 12.6705 6.71579 12.6782 6.6907C12.728 6.52936 12.8075 6.29477 12.9225 6.01804C12.979 5.87925 13.0462 5.73089 13.1202 5.57466C13.196 5.41976 13.2778 5.25599 13.3715 5.09163C13.4634 4.92602 13.5657 4.75894 13.6748 4.59178C13.731 4.50975 13.7854 4.42423 13.8458 4.34342L13.9348 4.21997L14.0279 4.09941C14.152 3.9376 14.2858 3.78389 14.4219 3.63492C14.4902 3.5608 14.5616 3.4911 14.6306 3.41945C14.703 3.35144 14.7743 3.28433 14.8447 3.21829C14.9181 3.15531 14.9905 3.09344 15.0612 3.03291C15.135 2.9755 15.2073 2.91935 15.2776 2.86471C15.3507 2.81312 15.4217 2.76309 15.4904 2.71459C15.5594 2.66556 15.6301 2.62541 15.6961 2.58266C15.7295 2.56203 15.7619 2.54078 15.7944 2.52173C15.8273 2.50351 15.8594 2.48564 15.8907 2.46824C15.9537 2.43377 16.013 2.39944 16.07 2.36975C16.1856 2.31449 16.2863 2.26287 16.3712 2.2257C16.5432 2.15402 16.6415 2.11304 16.6415 2.11304C16.6415 2.11304 16.5364 2.13278 16.3524 2.16729C16.2604 2.18616 16.1505 2.21585 16.0223 2.24677C15.9589 2.26435 15.8924 2.28588 15.8215 2.30727C15.786 2.3182 15.7496 2.3293 15.7124 2.34077C15.6754 2.3531 15.6383 2.36744 15.6 2.38121C15.524 2.41011 15.4423 2.43625 15.3614 2.47119C15.2802 2.50599 15.1961 2.54197 15.1097 2.579C15.0247 2.62016 14.9375 2.66243 14.8485 2.70568C14.761 2.7532 14.6719 2.80169 14.5811 2.85101C14.4924 2.90475 14.4023 2.95932 14.3112 3.01458C14.2227 3.074 14.1309 3.13227 14.0418 3.19543C13.864 3.32222 13.6856 3.45662 13.5159 3.60131C13.3434 3.74359 13.1807 3.8968 13.0224 4.05073C12.8658 4.2061 12.7159 4.36409 12.5773 4.52294C12.4369 4.68061 12.3095 4.83993 12.1896 4.99274C12.0718 5.14681 11.9626 5.2951 11.8667 5.43573C11.8289 5.49065 11.7932 5.54378 11.7589 5.5958C11.669 4.79054 11.7697 3.95641 12.2134 3.28418Z" fill="#348562"/>
</svg>
