<svg width="991" height="650" viewBox="0 0 991 650" fill="none" xmlns="http://www.w3.org/2000/svg">
<path d="M687.977 259.845C691.496 240.115 699.292 221.394 710.816 204.996C719.908 191.243 726.624 176.06 730.684 160.082C731.007 158.841 731.732 157.743 732.746 156.959C733.76 156.175 735.006 155.75 736.288 155.75C737.569 155.75 738.815 156.175 739.829 156.959C740.843 157.743 741.568 158.841 741.891 160.082C745.951 176.06 752.667 191.243 761.759 204.996C773.283 221.394 781.079 240.115 784.598 259.845L736.288 452.919L687.977 259.845Z" fill="#7AB756"/>
<path d="M736.285 452.911V393.477C736.285 320.119 713.276 280.044 680.163 252.875C659.236 233.726 642.323 210.608 630.409 184.866C629.759 183.559 628.694 182.505 627.38 181.869C626.066 181.233 624.578 181.052 623.15 181.353C621.722 181.654 620.434 182.421 619.489 183.533C618.544 184.645 617.995 186.04 617.928 187.498C616.485 220.611 617.164 279.025 635.333 328.185L702.323 452.911H736.285Z" fill="#659947"/>
<path d="M588.862 375.393C553.372 362.063 500.892 337.865 490.186 275.63C489.879 273.925 490.131 272.166 490.903 270.615C491.676 269.065 492.928 267.805 494.474 267.023C496.02 266.241 497.777 265.979 499.484 266.275C501.191 266.571 502.757 267.41 503.949 268.667C540.288 307.129 575.872 304.412 650.682 334.044C673.934 342.457 694.321 357.295 709.474 376.835C724.627 396.376 733.923 419.815 736.283 444.429L668.359 452.92L588.862 375.393Z" fill="#7AB756"/>
<path d="M693.831 444.425C687.312 426.226 675.745 410.259 660.483 398.393C645.222 386.526 626.897 379.251 607.652 377.418C547.574 370.125 539.847 375.542 510.351 360.437C508.959 359.697 507.378 359.384 505.809 359.538C504.239 359.693 502.75 360.307 501.528 361.305C500.307 362.303 499.407 363.639 498.942 365.146C498.477 366.653 498.467 368.264 498.915 369.777C501.972 379.215 507.147 387.829 514.044 394.961C520.941 402.092 529.378 407.551 538.709 410.922C581.799 427.673 591.945 444.425 591.945 444.425L600.435 452.916L693.831 444.425Z" fill="#88CC64"/>
<path d="M736.285 452.911V393.477C736.285 320.119 759.294 280.044 792.407 252.875C813.335 233.726 830.247 210.608 842.162 184.866C842.812 183.559 843.877 182.505 845.191 181.869C846.505 181.233 847.992 181.052 849.421 181.353C850.849 181.654 852.136 182.421 853.082 183.533C854.027 184.645 854.576 186.04 854.643 187.498C856.086 220.611 855.407 279.025 837.237 328.185L770.247 452.911H736.285Z" fill="#659947"/>
<path d="M883.706 375.393C919.196 362.063 971.676 337.865 982.382 275.63C982.689 273.925 982.437 272.166 981.664 270.615C980.892 269.065 979.639 267.805 978.094 267.023C976.548 266.241 974.791 265.979 973.084 266.275C971.377 266.571 969.811 267.41 968.619 268.667C932.28 307.129 896.696 304.412 821.886 334.044C798.634 342.457 778.247 357.295 763.094 376.835C747.941 396.376 738.645 419.815 736.285 444.429L804.209 452.92L883.706 375.393Z" fill="#7AB756"/>
<path d="M778.738 444.425C785.257 426.226 796.824 410.259 812.086 398.393C827.347 386.526 845.672 379.251 864.917 377.418C924.996 370.125 932.722 375.542 962.218 360.437C963.611 359.697 965.191 359.384 966.761 359.538C968.33 359.693 969.819 360.307 971.041 361.305C972.263 362.303 973.162 363.639 973.627 365.146C974.092 366.653 974.102 368.264 973.655 369.777C970.594 379.21 965.418 387.82 958.52 394.946C951.623 402.073 943.188 407.529 933.86 410.896C890.813 427.673 880.624 444.425 880.624 444.425L872.134 452.916L778.738 444.425Z" fill="#88CC64"/>
<path d="M594.918 486.873L625.059 627.136C626.35 633.093 629.638 638.43 634.38 642.26C639.121 646.09 645.03 648.184 651.125 648.193H821.444C827.54 648.184 833.448 646.09 838.19 642.26C842.931 638.43 846.22 633.093 847.51 627.136L877.652 486.873L872.133 478.383H600.437L594.918 486.873Z" fill="#FF9566"/>
<path d="M897.606 444.414H574.967C570.278 444.414 566.477 448.215 566.477 452.905V478.376C566.477 483.065 570.278 486.867 574.967 486.867H897.606C902.295 486.867 906.096 483.065 906.096 478.376V452.905C906.096 448.215 902.295 444.414 897.606 444.414Z" fill="#E57E55"/>
<g clip-path="url(#clip0_12261_4515)">
<path d="M321.034 280.508C322.81 285.364 342.546 343.162 302.07 411.319C277.484 452.717 240.156 455.456 236.5 455.626C234.359 452.657 213.285 421.726 230.405 376.725C258.595 302.636 316.126 282.138 321.034 280.508Z" fill="#80C56E"/>
<path d="M321.033 280.508L236.5 455.626C240.156 455.455 277.484 452.717 302.069 411.319C342.547 343.162 322.81 285.364 321.033 280.508Z" fill="#66AD66"/>
<path d="M233.889 461.044L236.501 455.633C236.446 455.557 236.375 455.457 236.295 455.344C234.679 459.119 233.889 461.044 233.889 461.044Z" fill="white" stroke="black" stroke-width="11.7765" stroke-miterlimit="10" stroke-linecap="round" stroke-linejoin="round"/>
<path d="M80.9385 280.508C79.1618 285.364 59.4259 343.162 99.9026 411.319C124.488 452.717 161.817 455.456 165.472 455.626C167.613 452.657 188.687 421.726 171.566 376.725C143.378 302.636 85.8462 282.138 80.9385 280.508Z" fill="#80C56E"/>
<path d="M171.567 376.725C143.379 302.636 85.8471 282.138 80.9395 280.508C130.927 375.984 157.89 437.14 165.679 455.336C168.678 451.048 188.247 420.565 171.567 376.725Z" fill="#66AD66"/>
<path d="M200.988 244.766C194.962 250.614 125.298 321.205 136.377 449.451C143.106 527.347 195.762 557.703 200.988 560.533C206.214 557.703 258.87 527.346 265.599 449.451C276.678 321.205 207.014 250.614 200.988 244.766Z" fill="#80C56E"/>
<path d="M200.986 244.766V560.533C206.213 557.703 258.868 527.346 265.597 449.451C276.676 321.205 207.013 250.614 200.986 244.766Z" fill="#66AD66"/>
<path d="M350.129 441.082C363.236 396.034 358.8 354.164 358.8 354.164C358.8 354.164 333.558 365.408 270.123 406.401C220.815 438.264 205.559 494.13 200.986 509.187H258.937C301.062 509.187 338.36 481.53 350.129 441.082Z" fill="#80C56E"/>
<path d="M358.8 354.164C358.8 354.164 293.606 482.954 200.986 509.188H258.937C301.062 509.188 338.36 481.53 350.13 441.083C363.236 396.034 358.8 354.164 358.8 354.164Z" fill="#66AD66"/>
<path d="M51.8429 441.082C38.7356 396.034 43.1722 354.164 43.1722 354.164C43.1722 354.164 68.414 365.408 131.849 406.401C181.157 438.264 196.413 494.13 200.986 509.187H143.035C100.91 509.187 63.6116 481.53 51.8429 441.082Z" fill="#80C56E"/>
<path d="M200.984 509.188C196.412 494.131 181.155 438.265 131.847 406.401C68.4117 365.408 43.1699 354.164 43.1699 354.164C43.1699 354.164 108.364 482.955 200.984 509.188Z" fill="#66AD66"/>
<path d="M242.89 646.736H159.079C136.849 646.736 117.779 630.886 113.715 609.03L95.7461 512.406H306.223L288.255 609.03C284.189 630.886 265.12 646.736 242.89 646.736Z" fill="#FEC37D"/>
<path d="M265.515 512.407L247.546 609.031C243.482 630.886 224.412 646.736 202.182 646.736H242.892C265.122 646.736 284.191 630.886 288.255 609.03L306.224 512.406H265.515V512.407Z" fill="#F9AE5D"/>
<path d="M309.895 534.119H92.0792C83.2531 534.119 76.0977 526.964 76.0977 518.138C76.0977 509.312 83.2531 502.156 92.0792 502.156H309.895C318.722 502.156 325.877 509.312 325.877 518.138C325.876 526.964 318.722 534.119 309.895 534.119Z" fill="#F2A559"/>
<path d="M309.894 502.156H284.289V534.119H309.894C318.72 534.119 325.876 526.964 325.876 518.138C325.877 509.312 318.721 502.156 309.894 502.156Z" fill="#EA8F3D"/>
</g>
<g clip-path="url(#clip1_12261_4515)">
<path d="M479.581 0C479.581 0 430.321 170.386 432.632 256.815C435.757 373.658 455.624 380.087 455.624 380.087H503.536C503.536 380.087 523.405 373.659 526.528 256.815C528.84 170.386 479.581 0 479.581 0Z" fill="#66AD66"/>
<path d="M479.581 0L476.883 380.087H503.538C503.538 380.087 523.406 373.659 526.53 256.815C528.84 170.386 479.581 0 479.581 0Z" fill="#5E9E5E"/>
<path d="M580.904 380.085C532.449 236.123 603.601 37.5312 603.601 37.5312C603.601 37.5312 544.27 88.1612 496.086 187.678C465.182 251.505 472.823 331.155 482.278 380.085H580.904Z" fill="#9CD38C"/>
<path d="M580.906 380.085C532.451 236.123 603.602 37.5312 603.602 37.5312C603.602 37.5312 473.026 212.567 523.825 380.085H580.906Z" fill="#80C56E"/>
<path d="M378.261 380.085C426.716 236.123 355.564 37.5312 355.564 37.5312C355.564 37.5312 414.896 88.1612 463.079 187.678C493.983 251.505 486.342 331.155 476.887 380.085H378.261Z" fill="#9CD38C"/>
<path d="M443.368 380.085C473.955 253.531 355.557 37.5312 355.557 37.5312C355.557 37.5312 414.888 88.1612 463.072 187.678C493.975 251.505 486.334 331.155 476.879 380.085H443.368Z" fill="#80C56E"/>
<path d="M602.093 380.084C608.099 298.972 702.135 235.289 702.135 235.289C702.135 235.289 625.11 244.492 571.087 288.28C533.452 318.784 519.477 366.164 516.057 380.082H602.093V380.084Z" fill="#9CD38C"/>
<path d="M602.097 380.099C608.103 298.988 702.139 235.305 702.139 235.305C702.139 235.305 595.396 266.775 553.434 380.099H602.097Z" fill="#80C56E"/>
<path d="M357.337 380.099C351.331 298.988 257.295 235.305 257.295 235.305C257.295 235.305 334.32 244.508 388.343 288.295C425.978 318.799 439.953 366.179 443.373 380.098H357.337V380.099Z" fill="#80C56E"/>
<path d="M357.333 380.084C351.327 298.972 257.291 235.289 257.291 235.289C257.291 235.289 369.524 269.144 405.729 380.084H357.333Z" fill="#9CD38C"/>
<path d="M568.974 182.304C493.001 236.456 461.409 356.604 455.854 380.077H553.433C566.057 219.547 723.422 109.57 723.422 109.57C723.422 109.57 653.382 122.141 568.974 182.304Z" fill="#66AD66"/>
<path d="M502.57 380.077H553.433C566.055 219.547 723.421 109.57 723.421 109.57C723.421 109.57 549.192 184.623 502.57 380.077Z" fill="#5E9E5E"/>
<path d="M390.19 182.304C466.164 236.456 497.755 356.604 503.311 380.077H405.732C393.108 219.547 235.742 109.57 235.742 109.57C235.742 109.57 305.782 122.141 390.19 182.304Z" fill="#66AD66"/>
<path d="M390.19 182.304C466.164 236.456 497.755 356.604 503.311 380.077H455.625C438.336 184.623 235.742 109.57 235.742 109.57C235.742 109.57 305.782 122.141 390.19 182.304Z" fill="#5E9E5E"/>
<path d="M557.306 646.738H401.584C392.047 646.738 383.755 640.198 381.53 630.925L322.465 384.695H636.427L577.361 630.925C575.136 640.198 566.843 646.738 557.306 646.738Z" fill="#FEC37D"/>
<path d="M574.031 384.695L514.966 630.925C512.742 640.199 504.449 646.738 494.912 646.738H557.31C566.846 646.738 575.139 640.198 577.364 630.925L636.429 384.695H574.031Z" fill="#F9AE5D"/>
<path d="M657.55 417.087H301.347C296.823 417.087 293.154 413.418 293.154 408.894V377.599C293.154 373.074 296.823 369.406 301.347 369.406H657.55C662.075 369.406 665.743 373.074 665.743 377.599V408.894C665.742 413.418 662.075 417.087 657.55 417.087Z" fill="#F2A559"/>
<path d="M657.547 369.406H598.615V417.085H657.547C662.071 417.085 665.74 413.417 665.74 408.893V377.598C665.738 373.074 662.071 369.406 657.547 369.406Z" fill="#EA8F3D"/>
<path d="M611.592 488.238L616.274 468.719H342.623L347.304 488.238H611.592Z" fill="#F2A559"/>
<path d="M549.193 488.238H611.592L612.594 484.06L616.273 468.719H553.876L549.193 488.238Z" fill="#EA8F3D"/>
</g>
<g clip-path="url(#clip2_12261_4515)">
<path d="M724.021 488.664L700.519 597.162L695.16 621.902L691.995 636.503C690.698 642.478 685.411 646.743 679.299 646.743H600.799C594.7 646.743 589.421 642.5 588.11 636.546L579.383 596.938L555.52 488.664H724.021Z" fill="#A78966"/>
<path d="M724.022 488.664L700.52 597.162L695.161 621.902H619.63C613.531 621.902 608.252 617.658 606.941 611.705L598.214 572.096L579.826 488.664H724.022Z" fill="#B39A7C"/>
<path d="M664.845 398.144C663.216 418.234 658.878 440.649 650.418 465.085C650.165 465.817 649.904 466.556 649.643 467.294C648.571 470.321 647.434 473.384 646.225 476.477H631.327C631.037 475.667 630.74 474.826 630.443 473.964C627.721 466.2 624.7 456.547 621.999 445.545C618.494 431.321 615.509 414.852 614.394 397.326C612.178 362.649 617.248 323.823 639.959 290.016C641.357 287.937 644.363 288.075 645.557 290.291C648.187 295.186 652.395 303.979 656.276 316.255C662.369 335.511 667.67 363.337 664.845 398.144Z" fill="#5EAC24"/>
<path d="M650.419 465.097C639.751 427.125 630.8 367.861 656.279 316.266C665.889 346.641 673.53 398.33 650.419 465.097Z" fill="#6DC82A"/>
<path d="M630.615 476.485H611.386C607.968 472.849 604.267 468.742 600.421 464.202C589.036 450.738 576.377 433.48 565.977 413.476C550.558 383.811 540.107 348.099 546.111 309.744C546.502 307.267 549.283 306.123 551.296 307.629C555.512 310.779 562.479 316.494 570.598 325.141C584.524 339.973 601.827 363.425 614.392 397.333C620.375 413.469 625.277 431.974 628.239 453.041C629.181 459.755 629.927 466.73 630.441 473.972C630.498 474.805 630.556 475.645 630.615 476.485Z" fill="#5EAC24"/>
<path d="M628.241 453.034C603.951 424.817 572.931 378.69 570.6 325.133C591.153 347.02 619.065 387.686 628.241 453.034Z" fill="#6DC82A"/>
<path d="M614.814 476.485H570.868C532.91 456.503 486.776 421.783 470.851 366.604C470.155 364.192 472.198 361.983 474.653 362.497C480.845 363.786 492.208 366.755 506.476 373.143C523.459 380.748 544.563 393.205 565.979 413.476C581.124 427.809 596.427 446.045 610.542 469.236C611.975 471.604 613.402 474.015 614.814 476.485Z" fill="#5EAC24"/>
<path d="M610.538 469.233C575.406 452.532 528.736 422.288 506.473 373.141C535.471 386.127 576.478 413.256 610.538 469.233Z" fill="#6DC82A"/>
<path d="M735.101 335.535C734.406 364.077 725.462 390.584 713.548 413.485C700.664 438.298 684.296 458.873 671.173 473.235C670.145 474.357 669.138 475.443 668.16 476.486H648.924C649.127 473.372 649.365 470.316 649.641 467.303C649.757 466.071 649.88 464.848 650.01 463.631C652.639 438.478 658.021 416.751 664.842 398.152C684.708 343.943 716.741 316.233 728.243 307.629C730.256 306.123 733.037 307.267 733.428 309.744C734.798 318.494 735.312 327.105 735.101 335.535Z" fill="#5EAC24"/>
<path d="M735.1 335.531C733.652 394.991 696.404 445.615 671.172 473.231C680.572 399.12 714.018 355.962 735.1 335.531Z" fill="#6DC82A"/>
<path d="M808.693 366.603C805.962 376.055 802.348 384.912 798.039 393.19C777.195 433.241 740.137 459.922 708.683 476.485H664.729C667.3 471.987 669.914 467.663 672.572 463.513C685.666 443.025 699.673 426.613 713.549 413.483C752.962 376.185 791.325 365.329 804.89 362.497C807.345 361.983 809.387 364.192 808.693 366.603Z" fill="#5EAC24"/>
<path d="M798.039 393.188C777.196 433.238 740.137 459.919 708.683 476.482H696.104C731.402 426.271 771.714 403.414 798.039 393.188Z" fill="#6DC82A"/>
<path d="M700.524 597.162L692 636.502C690.703 642.478 685.417 646.743 679.304 646.743H600.804C594.706 646.743 589.426 642.499 588.115 636.546L579.389 596.937L587.043 592.398C589.432 590.982 592.405 590.982 594.794 592.399L611.464 602.287C613.854 603.704 616.826 603.704 619.215 602.287L635.892 592.398C638.281 590.982 641.254 590.982 643.643 592.399L660.314 602.287C662.703 603.704 665.675 603.704 668.065 602.287L684.741 592.398C687.131 590.982 690.103 590.982 692.492 592.398L700.524 597.162Z" fill="#957856"/>
<path d="M753.479 493.703C753.479 494.543 753.442 495.376 753.37 496.202C752.096 511.36 739.284 523.376 723.807 523.376H555.74C547.578 523.376 540.162 520.037 534.788 514.656C529.407 509.282 526.068 501.866 526.068 493.704C526.068 479.777 535.788 468.015 548.781 464.864C551.011 464.322 553.343 464.031 555.741 464.031H723.808C731.97 464.031 739.386 467.37 744.76 472.744C750.14 478.125 753.479 485.541 753.479 493.703Z" fill="#957856"/>
<path d="M753.475 493.696C753.475 494.536 753.439 495.369 753.367 496.195C751.136 496.738 748.804 497.028 746.407 497.028H578.34C570.178 497.028 562.761 493.689 557.381 488.308C552.007 482.934 548.668 475.511 548.668 467.356C548.668 466.515 548.704 465.683 548.776 464.857C551.007 464.314 553.339 464.023 555.737 464.023H723.803C731.965 464.023 739.382 467.362 744.755 472.736C750.137 478.117 753.475 485.534 753.475 493.696Z" fill="#A78966"/>
<path d="M619.63 621.893C613.532 621.893 608.253 617.649 606.942 611.696L603.878 597.776L594.789 592.387C592.399 590.975 589.43 590.975 587.04 592.387L579.385 596.929L588.112 636.537C589.423 642.49 594.702 646.734 600.8 646.734H679.3C685.413 646.734 690.699 642.469 691.996 636.493L695.161 621.893H619.63Z" fill="#806749"/>
</g>
<g clip-path="url(#clip3_12261_4515)">
<path d="M270.56 432.918C266.245 429.639 261.623 426.785 256.758 424.395C256.758 424.395 246.235 417.95 234.728 411.032C227.4 390.123 226.701 367.462 232.725 346.141C254.902 353.749 272.929 373.816 278.936 381.099C268.775 410.958 270.56 432.918 270.56 432.918Z" fill="#72BA43"/>
<path d="M236.543 521.805L250.407 635.957C250.77 638.94 252.212 641.688 254.461 643.681C256.71 645.674 259.611 646.774 262.617 646.774H364.217C367.223 646.774 370.124 645.674 372.373 643.681C374.622 641.688 376.064 638.94 376.427 635.957L390.291 521.805H236.543Z" fill="#D3AC7C"/>
<path opacity="0.1" d="M374.862 640.625C373.78 642.491 372.228 644.041 370.36 645.12C368.492 646.199 366.374 646.769 364.217 646.773H262.616C259.615 646.77 256.719 645.669 254.472 643.679C252.226 641.689 250.784 638.946 250.419 635.968L236.537 521.812H245.026L258.197 630.181C258.556 633.163 259.996 635.909 262.244 637.901C264.492 639.892 267.392 640.99 270.395 640.987H371.99C372.958 640.984 373.923 640.862 374.862 640.625Z" fill="black"/>
<path d="M399.517 495.656H227.321C223.924 495.656 221.17 498.41 221.17 501.808V515.644C221.17 519.041 223.924 521.795 227.321 521.795H399.517C402.915 521.795 405.669 519.041 405.669 515.644V501.808C405.669 498.41 402.915 495.656 399.517 495.656Z" fill="#CE9765"/>
<path d="M373.759 495.66H313.418C313.418 495.66 325.726 455.99 356.279 432.905C360.594 429.626 365.216 426.772 370.081 424.382C370.081 424.382 380.604 417.937 392.111 411.019C403.217 404.355 415.237 397.217 419.642 394.922C419.642 394.93 428.091 479.772 373.759 495.66Z" fill="#61A038"/>
<path d="M313.418 495.675H253.076C198.75 479.798 207.194 394.945 207.194 394.945C211.599 397.24 223.619 404.379 234.724 411.042C246.232 417.96 256.755 424.406 256.755 424.406C261.619 426.795 266.241 429.649 270.557 432.928C301.109 456.005 313.418 495.675 313.418 495.675Z" fill="#61A038"/>
<path d="M356.278 432.916C325.725 456.001 313.417 495.671 313.417 495.671C313.417 495.671 301.109 456.001 270.556 432.916C270.556 432.916 268.771 410.956 278.932 381.097C286.453 359.145 298.165 338.862 313.417 321.375C328.751 338.96 340.503 359.371 348.013 381.462C358.063 411.14 356.278 432.916 356.278 432.916Z" fill="#6BA843"/>
<path d="M392.115 411.032C380.607 417.95 370.085 424.395 370.085 424.395C365.22 426.785 360.598 429.639 356.282 432.918C356.282 432.918 358.068 411.131 348.018 381.464C352.531 375.709 370.594 354.224 394.118 346.141C400.142 367.462 399.443 390.123 392.115 411.032Z" fill="#72BA43"/>
</g>
<defs>
<clipPath id="clip0_12261_4515">
<rect width="401.972" height="401.972" fill="white" transform="translate(0 244.766)"/>
</clipPath>
<clipPath id="clip1_12261_4515">
<rect width="646.737" height="646.737" fill="white" transform="translate(156.213)"/>
</clipPath>
<clipPath id="clip2_12261_4515">
<rect width="358.193" height="358.193" fill="white" transform="translate(460.672 288.539)"/>
</clipPath>
<clipPath id="clip3_12261_4515">
<rect width="362.173" height="362.173" fill="white" transform="translate(132.332 284.562)"/>
</clipPath>
</defs>
</svg>
