<svg width="22" height="22" viewBox="0 0 22 22" fill="none" xmlns="http://www.w3.org/2000/svg">
<path d="M11.0013 0.164062C16.9846 0.164062 21.8347 5.01415 21.8347 10.9974C21.8347 16.9806 16.9846 21.8307 11.0013 21.8307C9.08683 21.8338 7.20603 21.3272 5.55215 20.3628L0.172317 21.8307L1.63698 16.4487C0.671835 14.7943 0.164786 12.9127 0.167984 10.9974C0.167984 5.01415 5.01807 0.164062 11.0013 0.164062ZM7.30932 5.90573L7.09265 5.9144C6.95238 5.92294 6.8153 5.95979 6.68965 6.02273C6.57213 6.08928 6.46486 6.17247 6.37115 6.26973C6.24115 6.39215 6.16748 6.49831 6.0884 6.60123C5.6877 7.12221 5.47195 7.76182 5.47523 8.41906C5.4774 8.9499 5.61607 9.46665 5.83273 9.94981C6.27582 10.927 7.0049 11.9616 7.9669 12.9203C8.19873 13.1511 8.42623 13.3829 8.67107 13.5985C9.86641 14.6509 11.2908 15.4099 12.8311 15.815L13.4464 15.9092C13.6468 15.9201 13.8472 15.9049 14.0487 15.8951C14.3642 15.8789 14.6723 15.7934 14.9512 15.6449C15.093 15.5718 15.2315 15.4923 15.3661 15.4066C15.3661 15.4066 15.4127 15.3762 15.5015 15.3091C15.6477 15.2007 15.7377 15.1238 15.859 14.9971C15.9489 14.9039 16.0269 14.7945 16.0865 14.6699C16.171 14.4933 16.2555 14.1564 16.2901 13.8758C16.3162 13.6613 16.3086 13.5443 16.3053 13.4717C16.301 13.3558 16.2046 13.2356 16.0995 13.1846L15.469 12.9019C15.469 12.9019 14.5265 12.4913 13.9502 12.2291C13.8898 12.2028 13.8252 12.1878 13.7595 12.1847C13.6854 12.1771 13.6105 12.1855 13.5398 12.2092C13.4692 12.2329 13.4045 12.2715 13.35 12.3223C13.3446 12.3201 13.272 12.3819 12.4887 13.3309C12.4438 13.3913 12.3819 13.437 12.3109 13.462C12.2399 13.4871 12.163 13.4905 12.0901 13.4717C12.0195 13.4528 11.9503 13.4289 11.8832 13.4002C11.7488 13.3439 11.7022 13.3222 11.6102 13.2832C10.9884 13.0119 10.4127 12.6453 9.9039 12.1966C9.7674 12.0775 9.64065 11.9475 9.51065 11.8218C9.08445 11.4136 8.71302 10.9519 8.40565 10.4481L8.34173 10.3452C8.29583 10.2761 8.25871 10.2015 8.23123 10.1231C8.19007 9.9639 8.29732 9.83606 8.29732 9.83606C8.29732 9.83606 8.56057 9.5479 8.68298 9.3919C8.80215 9.24023 8.9029 9.0929 8.9679 8.98781C9.09573 8.78198 9.13582 8.57073 9.06865 8.40715C8.76532 7.66615 8.45115 6.9284 8.12832 6.19606C8.0644 6.0509 7.87482 5.9469 7.70257 5.92631C7.64407 5.91981 7.58557 5.91331 7.52707 5.90898C7.38158 5.90175 7.2358 5.9032 7.09048 5.91331L7.30823 5.90465L7.30932 5.90573Z" fill="#348562"/>
</svg>
